<?xml version="1.0" standalone="no"?>
<!DOCTYPE svg PUBLIC "-//W3C//DTD SVG 1.1//EN" "http://www.w3.org/Graphics/SVG/1.1/DTD/svg11.dtd" >
<svg xmlns="http://www.w3.org/2000/svg">
<metadata></metadata>
<defs>
<font id="kiroitalic" horiz-adv-x="1083" >
<font-face units-per-em="2048" ascent="1649" descent="-399" />
<missing-glyph horiz-adv-x="440" />
<glyph unicode="&#xfb01;" horiz-adv-x="1060" d="M106 907l11 72q6 35 43 35h108l15 96q59 348 395 348q156 0 260 -72q25 -20 8 -53l-43 -61q-20 -28 -53 -8q-71 47 -174 47q-190 0 -225 -213l-15 -84h533q43 0 37 -41l-150 -938q-6 -35 -43 -35h-90q-43 0 -37 41l131 825h-403l-131 -831q-6 -35 -43 -35h-90 q-43 0 -37 41l131 825h-101q-43 0 -37 41z" />
<glyph unicode="&#xfb02;" horiz-adv-x="1081" d="M106 907l11 72q6 35 43 35h106l15 86q29 174 131.5 266t271.5 92q141 0 240 -57q6 33 43 33h90q43 0 37 -41l-215 -1358q-6 -35 -43 -35h-91q-42 0 -36 41l188 1184q-80 86 -215 86q-93 0 -154.5 -59.5t-78.5 -164.5l-13 -73h246q43 0 37 -41l-10 -72q-6 -35 -43 -35 h-252l-131 -831q-6 -35 -43 -35h-90q-43 0 -37 41l131 825h-101q-43 0 -37 41z" />
<glyph unicode="&#xfb03;" horiz-adv-x="1638" d="M106 907l11 72q6 35 43 35h108l11 65q27 173 129 264q106 95 276 95t283 -90q98 110 288 110q157 0 261 -72q25 -20 8 -53l-43 -61q-20 -29 -54 -8q-71 47 -174 47q-190 0 -225 -213l-14 -84h532q43 0 37 -41l-149 -938q-6 -35 -43 -35h-91q-42 0 -36 41l131 825h-404 l-131 -831q-6 -35 -43 -35h-90q-43 0 -37 41l131 825h-407l-131 -831q-6 -35 -43 -35h-90q-43 0 -37 41l131 825h-101q-43 0 -37 41zM438 1014h408l14 96q7 48 27 102q-84 78 -205 78q-94 0 -156.5 -59.5t-79.5 -163.5z" />
<glyph unicode="&#xfb04;" horiz-adv-x="1658" d="M106 907l11 72q6 35 43 35h108l11 65q26 173 130 266t275 93q173 0 283 -90q104 110 295 110q140 0 239 -57q6 33 43 33h90q43 0 37 -41l-215 -1358q-6 -35 -43 -35h-90q-43 0 -37 41l189 1184q-80 86 -215 86q-93 0 -155 -59.5t-79 -164.5l-12 -73h246q42 0 36 -41 l-10 -72q-6 -35 -43 -35h-252l-131 -831q-6 -35 -43 -35h-90q-43 0 -37 41l131 825h-407l-131 -831q-6 -35 -43 -35h-90q-43 0 -37 41l131 825h-101q-43 0 -37 41zM438 1014h406l14 86q9 57 29 112q-84 78 -205 78q-94 0 -156.5 -59.5t-79.5 -163.5z" />
<glyph horiz-adv-x="0" />
<glyph horiz-adv-x="682" />
<glyph unicode=" "  horiz-adv-x="440" />
<glyph unicode="&#x09;" horiz-adv-x="440" />
<glyph unicode="&#xa0;" horiz-adv-x="440" />
<glyph unicode="!" horiz-adv-x="481" d="M59 80q0 51 36 87t87 36q47 0 76 -30t29 -75q0 -53 -35.5 -88t-87.5 -35q-45 0 -75 29t-30 76zM172 401l27 369l86 555q6 35 43 35h88q43 0 37 -41l-86 -549l-93 -373q-6 -24 -30 -24h-43q-17 0 -24 7t-5 21z" />
<glyph unicode="&#x22;" horiz-adv-x="772" d="M223 924l41 399q3 37 41 37h90q41 0 35 -43l-86 -399q-6 -29 -35 -29h-55q-34 0 -31 35zM565 924l41 399q3 37 41 37h90q41 0 35 -43l-86 -399q-6 -29 -35 -29h-55q-34 0 -31 35z" />
<glyph unicode="#" d="M41 420l22 67q10 29 41 29h162l96 287h-153q-38 0 -29 39l23 67q10 29 41 29h164l104 311q13 29 41 29h70q19 0 26.5 -11t1.5 -28l-100 -301h235l105 311q13 29 41 29h69q19 0 27 -11t2 -28l-100 -301h151q38 0 29 -39l-23 -68q-9 -28 -40 -28h-162l-97 -287h154 q38 0 29 -39l-23 -67q-10 -29 -41 -29h-164l-116 -352q-13 -29 -41 -29h-72q-38 0 -29 39l115 342h-235l-117 -352q-13 -29 -41 -29h-72q-38 0 -29 39l115 342h-151q-38 0 -29 39zM410 516h235l96 287h-235z" />
<glyph unicode="$" d="M82 205q-19 31 10 53l72 53q32 25 53 -10q81 -112 244 -127l61 391q-175 20 -251 88.5t-76 200.5q0 177 118.5 287t319.5 121l18 118q3 29 33 29h53q33 0 27 -33l-19 -119q202 -21 295 -155q23 -33 -10 -53l-69 -54q-31 -25 -56 11q-60 81 -184 96l-62 -393 q173 -20 249.5 -87.5t76.5 -197.5q0 -177 -117.5 -286t-318.5 -120l-21 -133q-3 -28 -32 -28h-54q-32 0 -26 32l20 129q-240 18 -354 187zM369 885q0 -63 42.5 -101t135.5 -57l59 377q-109 -12 -173 -71.5t-64 -147.5zM575 174q109 13 172.5 73t63.5 148q0 63 -42 99 t-136 55z" />
<glyph unicode="%" horiz-adv-x="1296" d="M95.5 10q-5.5 10 6.5 27l998 1223q15 18 37 18h88q20 0 25 -10t-7 -27l-997 -1223q-15 -18 -37 -18h-88q-20 0 -25.5 10zM125 840q0 27 4 55l25 162q38 246 272 246q106 0 165.5 -53.5t59.5 -149.5q0 -28 -4 -56l-24 -161q-37 -248 -271 -248q-109 0 -168 53.5t-59 151.5 zM252 846q0 -94 104 -94q61 0 94.5 34.5t45.5 108.5l24 156q4 36 4 39q0 96 -102 96q-65 0 -97 -34t-44 -110l-25 -153q-1 -9 -2 -19.5t-1.5 -15.5t-0.5 -8zM692 180q0 28 4 56l25 161q37 246 272 246q106 0 166 -53.5t60 -149.5q0 -20 -5 -55l-24 -162q-37 -248 -270 -248 q-109 0 -168.5 53.5t-59.5 151.5zM819 186q0 -94 105 -94q61 0 94 35t45 109l24 155q1 7 2 16t2 14.5t1 8.5q0 96 -103 96q-65 0 -97 -33.5t-44 -109.5l-25 -154q-1 -9 -2 -19.5t-1.5 -15.5t-0.5 -8z" />
<glyph unicode="&#x26;" horiz-adv-x="1210" d="M45 326q0 147 72 257t227 201q-65 115 -65 226q0 172 110 273t299 101q169 0 279 -90q29 -22 4 -53l-47 -63q-25 -32 -56 -7q-78 60 -176 60q-113 0 -177 -58.5t-64 -162.5q0 -89 86 -207l313 -422q90 127 154 274q15 38 49 23l75 -31q36 -11 21 -51q-94 -210 -201 -348 l150 -201q14 -20 7 -33.5t-32 -13.5h-125q-31 0 -47 25l-72 96q-172 -146 -395 -146q-178 0 -283.5 95.5t-105.5 255.5zM221 340q0 -93 65.5 -151t174.5 -58q145 0 274 117l-305 409q-209 -126 -209 -317z" />
<glyph unicode="'" horiz-adv-x="430" d="M223 924l41 399q3 37 41 37h90q41 0 35 -43l-86 -399q-6 -29 -35 -29h-55q-34 0 -31 35z" />
<glyph unicode="(" horiz-adv-x="673" d="M158 397q0 231 94 482q94 254 293 462q16 19 43 19h84q15 0 20 -8.5t0 -23t-18 -30.5q-173 -210 -259.5 -448.5t-86.5 -470.5q0 -291 129 -522q21 -41 -25 -41h-84q-28 0 -43 24q-147 258 -147 557z" />
<glyph unicode=")" horiz-adv-x="673" d="M7 -153q5 14 18 30q173 210 259.5 449t86.5 471q0 291 -129 522q-21 41 24 41h84q27 0 43 -25q148 -260 148 -557q0 -227 -95 -483q-96 -256 -292 -461q-15 -18 -43 -18h-84q-15 0 -20 8.5t0 22.5z" />
<glyph unicode="*" horiz-adv-x="980" d="M156 1094l26 73q12 35 47 23l312 -135l-11 342q0 37 37 37h78q39 0 33 -39l-47 -336l317 131q38 15 47 -23l21 -73q9 -36 -27 -45l-340 -80l211 -256q26 -32 -6 -54l-63 -43q-34 -21 -52 13l-161 289l-191 -293q-18 -29 -51 -9l-60 43q-36 22 -6 52l238 260l-328 78 q-36 6 -24 45z" />
<glyph unicode="+" d="M53 532l13 82q6 35 43 35h383l59 385q6 35 43 35h78q43 0 37 -41l-60 -379h375q43 0 37 -41l-12 -82q-6 -34 -43 -34h-383l-60 -383q-6 -35 -43 -35h-78q-42 0 -36 41l59 377h-375q-43 0 -37 40z" />
<glyph unicode="," horiz-adv-x="477" d="M39 -195q-16 23 4 37q80 65 102 152q-69 21 -69 90q0 55 33 87t88 32q47 0 74.5 -30t27.5 -81q0 -84 -53 -172t-144 -156q-21 -15 -36 7z" />
<glyph unicode="-" horiz-adv-x="679" d="M70 518l12 86q6 35 43 35h477q43 0 37 -41l-12 -86q-6 -35 -43 -35h-478q-42 0 -36 41z" />
<glyph unicode="." horiz-adv-x="477" d="M57 80q0 51 36 87t87 36q47 0 76 -30t29 -75q0 -53 -35.5 -88t-87.5 -35q-47 0 -76 29t-29 76z" />
<glyph unicode="/" horiz-adv-x="729" d="M0 41l670 1294q12 25 41 25h86q47 0 26 -41l-669 -1294q-12 -25 -41 -25h-86q-48 0 -27 41z" />
<glyph unicode="0" d="M84 322q0 59 8 100l70 446q68 435 485 435q189 0 291 -90.5t102 -256.5q0 -59 -8 -100l-69 -444q-68 -437 -486 -437q-189 0 -291 90.5t-102 256.5zM262 346q0 -215 225 -215q255 0 301 297l68 424q6 43 6 80q0 215 -225 215q-255 0 -301 -297l-68 -424q-6 -44 -6 -80z " />
<glyph unicode="1" d="M326 926q-18 35 12 53l426 285q20 14 49 14h68q43 0 37 -41l-191 -1202q-6 -35 -43 -35h-96q-43 0 -37 41l160 997l-293 -190q-32 -22 -53 12z" />
<glyph unicode="2" d="M68 41l10 80q3 27 24 45l580 493q106 91 146 156.5t40 147.5q0 86 -57 135t-156 49q-175 0 -301 -164q-24 -30 -55 -6l-59 53q-26 26 -4 55q173 218 442 218q168 0 267 -89t99 -241q0 -126 -55 -217q-55 -92 -190 -207l-465 -389v-4h543q42 0 36 -41l-12 -80 q-6 -35 -43 -35h-756q-40 0 -34 41z" />
<glyph unicode="3" d="M86 156q-19 32 8 53l66 55q29 26 53 -8q91 -125 291 -125q151 0 234 70.5t83 195.5q0 189 -278 189h-80q-43 0 -37 41l12 80q6 34 43 34h74q170 0 249 55t79 173q0 86 -59.5 132t-168.5 46q-174 0 -305 -137q-32 -32 -55 2l-51 61q-22 29 4 55q175 175 432 175 q177 0 278 -85t101 -233q0 -246 -232 -323v-5q170 -74 170 -272q0 -192 -132.5 -301t-366.5 -109q-286 0 -412 181z" />
<glyph unicode="4" d="M49 330l17 94q3 28 22 47l727 786q18 21 47 21h105q43 0 37 -41l-127 -793h114q44 0 35 -43l-12 -77q-6 -35 -43 -35h-119l-39 -254q-6 -35 -43 -35h-96q-43 0 -37 41l39 248h-590q-43 0 -37 41zM279 444h421l93 566h-5z" />
<glyph unicode="5" d="M90 156q-21 31 6 55l64 55q29 26 53 -8q95 -127 293 -127q149 0 236 81.5t87 221.5q0 106 -64 169t-173 63q-154 0 -264 -88q-25 -18 -52 -15l-57 10q-37 6 -31 45l142 625q9 35 43 35h657q43 0 37 -41l-12 -80q-6 -35 -43 -35h-545l-82 -368h4q107 67 256 67 q158 0 260 -102q103 -103 103 -268q0 -218 -137 -347t-371 -129q-284 0 -410 181z" />
<glyph unicode="6" d="M102 336q0 31 7 82l73 452q32 207 160.5 320t331.5 113q223 0 352 -129q22 -29 -2 -56l-66 -61q-26 -27 -55 2q-82 88 -229 88q-272 0 -318 -295l-22 -135h4q113 110 299 110q158 0 253 -100.5t95 -267.5q0 -221 -135 -353q-131 -131 -354 -131q-182 0 -288 97.5 t-106 263.5zM281 344q0 -100 60.5 -156.5t168.5 -56.5q136 0 216.5 85t80.5 228q0 106 -58.5 167t-160.5 61q-118 0 -200.5 -74t-102.5 -199q-4 -24 -4 -55z" />
<glyph unicode="7" d="M180 940l47 303q6 35 43 35h836q43 0 37 -41l-15 -98q-4 -25 -18 -45l-700 -1069q-19 -25 -48 -25h-116q-24 0 -31.5 13.5t4.5 33.5l715 1075h-561l-29 -188q-6 -35 -43 -35h-84q-43 0 -37 41z" />
<glyph unicode="8" d="M53 315q0 133 69.5 225.5t199.5 133.5v4q-140 81 -140 242q0 180 122.5 281.5t336.5 101.5q190 0 294.5 -84t104.5 -234q0 -243 -229 -328v-4q168 -79 168 -268q0 -190 -132.5 -300t-361.5 -110q-204 0 -318 89.5t-114 250.5zM229 328q0 -96 67.5 -146.5t195.5 -50.5 q146 0 228.5 68.5t82.5 191.5q0 94 -67.5 144.5t-192.5 50.5q-147 0 -230.5 -68.5t-83.5 -189.5zM356 915q0 -84 60.5 -129t171.5 -45q130 0 204 61t74 169q0 176 -231 176q-127 0 -203 -63t-76 -169z" />
<glyph unicode="9" d="M123 104q-25 28 0 56l59 63q27 27 56 -2q90 -90 237 -90q272 0 318 295l22 137h-4q-112 -112 -299 -112q-158 0 -253 100.5t-95 267.5q0 217 133 350q137 134 358 134q183 0 287.5 -96.5t104.5 -262.5q0 -33 -7 -84l-73 -452q-32 -207 -160.5 -320t-331.5 -113 q-226 0 -352 129zM342 834q0 -106 58.5 -167t160.5 -61q118 0 200.5 74t102.5 199q4 50 4 55q0 99 -61 156t-166 57q-141 0 -220 -83t-79 -230z" />
<glyph unicode=":" horiz-adv-x="477" d="M57 80q0 51 36 87t87 36q47 0 76 -30t29 -75q0 -53 -35.5 -88t-87.5 -35q-47 0 -76 29t-29 76zM180 848q0 51 36 87t87 36q47 0 76 -30t29 -75q0 -53 -35.5 -88t-87.5 -35q-47 0 -76 30t-29 75z" />
<glyph unicode=";" horiz-adv-x="477" d="M39 -195q-16 23 4 37q80 65 102 152q-69 21 -69 90q0 55 33 87t88 32q47 0 74.5 -30t27.5 -81q0 -84 -53 -172t-144 -156q-21 -15 -36 7zM197 848q0 51 35.5 87t86.5 36q47 0 76 -30t29 -75q0 -53 -35.5 -88t-87.5 -35q-46 0 -75 30t-29 75z" />
<glyph unicode="&#x3c;" d="M86 532l12 80q3 30 33 43l907 383q24 8 35.5 -0.5t7.5 -31.5l-12 -91q-3 -30 -33 -43l-741 -307v-4l637 -301q33 -14 26 -47l-12 -84q-6 -46 -49 -25l-784 381q-30 16 -27 47z" />
<glyph unicode="=" d="M49 303l12 82q6 35 43 35h854q41 0 35 -41l-12 -80q-3 -37 -41 -37h-854q-43 0 -37 41zM121 764l12 82q6 35 43 35h854q43 0 37 -41l-12 -82q-6 -35 -43 -35h-854q-43 0 -37 41z" />
<glyph unicode="&#x3e;" d="M25 137l12 90q3 30 33 43l741 308v4l-637 301q-33 15 -27 47l13 84q6 45 49 24l784 -381q30 -16 27 -47l-12 -80q-3 -30 -33 -43l-907 -383q-24 -8 -35.5 1t-7.5 32z" />
<glyph unicode="?" horiz-adv-x="929" d="M182 1112q-27 21 0 55q175 217 439 217q170 0 270 -89.5t100 -239.5q0 -136 -61.5 -225.5t-210.5 -167.5q-109 -56 -155 -106.5t-58 -123.5l-4 -24q-6 -35 -43 -35h-80q-43 0 -37 41l6 39q17 105 76.5 179.5t185.5 145.5q116 66 160.5 125t44.5 146q0 84 -56 132t-153 48 q-180 0 -311 -168q-27 -34 -57 -4zM258 80q0 51 36 87t87 36q46 0 75 -30t29 -75q0 -53 -35.5 -88t-87.5 -35q-45 0 -74.5 29t-29.5 76z" />
<glyph unicode="@" horiz-adv-x="1497" d="M94 451q0 248 103 481q58 127 147 227q91 102 237 163.5t320 61.5q268 0 404 -157q137 -155 137 -416q0 -197 -70 -381q-36 -99 -110 -157t-170 -58q-138 0 -168 113h-4q-85 -113 -242 -113q-109 0 -170.5 55t-61.5 152q0 129 78.5 198.5t229.5 69.5h170q6 41 6 72 q0 72 -35.5 103.5t-110.5 31.5q-78 0 -155 -57q-28 -22 -47 6l-25 41q-14 26 8 45q103 80 238 80q260 0 260 -234q0 -34 -6 -71l-37 -234q-1 -9 -2 -19.5t-1.5 -16t-0.5 -9.5q0 -98 86 -98q59 0 104 52t66 136q41 149 41 293q0 215 -107 337t-313 122q-111 0 -206 -30 t-162 -80.5t-120.5 -119t-87 -142t-55.5 -155t-30.5 -151.5t-8.5 -137q0 -238 129.5 -368t368.5 -130q207 0 350 98q29 19 45 -12l25 -49q12 -30 -15 -45q-176 -105 -413 -105q-294 0 -456.5 159.5t-162.5 447.5zM580 426q0 -96 125 -96q75 0 127 49t65 141l8 58h-145 q-180 0 -180 -152z" />
<glyph unicode="A" horiz-adv-x="1202" d="M6 45l637 1286q16 29 45 29h129q35 0 41 -35l232 -1282q1 -5 1 -10q0 -33 -36 -33h-107q-37 0 -43 35l-39 235h-557l-114 -241q-16 -29 -48 -29h-112q-35 0 -35 23q0 9 6 22zM387 432h455l-115 709h-4z" />
<glyph unicode="B" horiz-adv-x="1155" d="M94 41l203 1284q6 35 43 35h371q415 0 415 -307q0 -291 -249 -361v-4q184 -67 184 -274q0 -217 -124 -315.5t-394 -98.5h-412q-38 0 -38 32q0 4 1 9zM297 162h264q161 0 238.5 64.5t77.5 199.5q0 182 -242 182h-266zM393 770h230q162 0 239.5 61.5t77.5 190.5 q0 91 -60 133.5t-186 42.5h-231z" />
<glyph unicode="C" horiz-adv-x="1079" d="M100 362q0 58 9 111l67 426q76 485 539 485q309 0 403 -245q4 -11 4 -20q0 -22 -24 -32l-82 -36q-11 -5 -19 -5q-21 0 -32 27q-65 150 -260 150q-295 0 -351 -355l-59 -383q-8 -44 -8 -102q0 -246 248 -246q191 0 305 166q20 33 53 10l72 -47q31 -19 10 -53 q-164 -238 -453 -238q-203 0 -312.5 100.5t-109.5 286.5z" />
<glyph unicode="D" horiz-adv-x="1210" d="M94 41l203 1284q6 35 43 35h399q432 0 432 -363q0 -38 -10 -110l-67 -424q-37 -234 -172 -348.5t-379 -114.5h-412q-38 0 -38 32q0 4 1 9zM297 162h252q159 0 247 81t117 249l62 378q8 41 8 95q0 233 -266 233h-254z" />
<glyph unicode="E" horiz-adv-x="1101" d="M94 41l203 1284q6 35 43 35h772q36 0 36 -31q0 -5 -1 -10l-12 -84q-3 -37 -41 -37h-631l-70 -430h535q38 0 38 -32q0 -4 -1 -9l-15 -86q-6 -35 -43 -35h-538l-72 -444h625q37 0 37 -31q0 -4 -1 -10l-14 -86q-6 -35 -43 -35h-770q-38 0 -38 32q0 4 1 9z" />
<glyph unicode="F" horiz-adv-x="1034" d="M94 41l203 1284q6 35 43 35h752q35 0 35 -31q0 -5 -1 -10l-12 -84q-3 -37 -41 -37h-610l-72 -442h514q38 0 38 -32q0 -4 -1 -9l-14 -86q-6 -35 -43 -35h-518l-88 -559q-6 -35 -43 -35h-105q-38 0 -38 32q0 4 1 9z" />
<glyph unicode="G" horiz-adv-x="1165" d="M98 362q0 34 11 113l67 426q76 483 547 483q318 0 420 -245q4 -11 4 -20q0 -21 -25 -32l-84 -36q-33 -14 -51 20q-78 152 -276 152q-301 0 -357 -357l-59 -379q-8 -44 -8 -100q0 -250 258 -250q151 0 236 87.5t116 271.5l12 73h-252q-37 0 -37 31q0 5 1 10l12 86 q6 35 43 35h391q38 0 38 -32q0 -4 -1 -9l-37 -223q-83 -492 -535 -492q-207 0 -320.5 100.5t-113.5 286.5z" />
<glyph unicode="H" horiz-adv-x="1275" d="M94 41l203 1284q6 35 43 35h104q38 0 38 -32q0 -4 -1 -9l-88 -549h582l88 555q6 35 43 35h104q38 0 38 -32q0 -4 -1 -9l-203 -1284q-6 -35 -43 -35h-104q-38 0 -38 32q0 4 1 9l90 567h-581l-90 -573q-6 -35 -43 -35h-105q-38 0 -38 32q0 4 1 9z" />
<glyph unicode="I" horiz-adv-x="509" d="M94 41l203 1284q6 35 43 35h104q38 0 37 -32v-9l-202 -1284q-6 -35 -43 -35h-105q-38 0 -38 32q0 4 1 9z" />
<glyph unicode="J" horiz-adv-x="1064" d="M20 197q-5 10 -5 19q0 19 20 32l78 49q32 20 53 -14q84 -146 262 -146q270 0 322 334l135 854q6 35 43 35h102q38 0 38 -32q0 -4 -1 -9l-137 -875q-73 -469 -504 -469q-294 0 -406 222z" />
<glyph unicode="K" horiz-adv-x="1148" d="M94 41l203 1284q6 35 43 35h104q38 0 38 -32q0 -4 -1 -9l-88 -557h4l578 577q21 21 49 21h143q26 0 32 -14q1 -3 1 -7q0 -12 -14 -26l-639 -625l457 -639q14 -20 7 -34.5t-30 -14.5h-133q-31 0 -47 25l-428 616l-94 -606q-6 -35 -43 -35h-105q-38 0 -38 32q0 4 1 9z" />
<glyph unicode="L" horiz-adv-x="1021" d="M94 41l203 1284q6 35 43 35h104q38 0 38 -32q0 -4 -1 -9l-184 -1157h594q38 0 38 -32q0 -4 -1 -9l-15 -86q-6 -35 -43 -35h-739q-38 0 -38 32q0 4 1 9z" />
<glyph unicode="M" horiz-adv-x="1679" d="M94 41l203 1284q6 35 43 35h192q37 0 43 -35l226 -1057h4l551 1063q16 29 45 29h213q38 0 38 -32q0 -4 -1 -9l-203 -1284q-6 -35 -43 -35h-105q-37 0 -37 31q0 4 1 10l166 1055h-5l-563 -1069q-15 -27 -45 -27h-98q-37 0 -43 35l-230 1069h-4l-168 -1069q-6 -35 -43 -35 h-100q-38 0 -38 32q0 4 1 9z" />
<glyph unicode="N" horiz-adv-x="1275" d="M94 41l203 1284q6 35 43 35h131q33 0 45 -31l389 -1007h4l158 1003q6 35 43 35h100q38 0 38 -32q0 -4 -1 -9l-203 -1284q-6 -35 -43 -35h-114q-33 0 -45 31l-402 1034h-4l-162 -1030q-6 -35 -43 -35h-100q-38 0 -38 32q0 4 1 9z" />
<glyph unicode="O" horiz-adv-x="1204" d="M100 367q0 57 9 106l67 426q76 485 541 485q211 0 326.5 -100.5t115.5 -286.5q0 -38 -10 -110l-68 -426q-77 -486 -540 -486q-213 0 -327 101.5t-114 290.5zM287 387q0 -250 262 -250q153 0 238 84.5t114 265.5l62 387q8 44 8 103q0 246 -260 246q-153 0 -240.5 -87 t-116.5 -268l-59 -383q-8 -41 -8 -98z" />
<glyph unicode="P" horiz-adv-x="1118" d="M94 41l203 1284q6 35 43 35h377q424 0 424 -354q0 -248 -133 -365t-414 -117h-240l-75 -489q-6 -35 -43 -35h-105q-38 0 -38 32q0 4 1 9zM381 686h231q177 0 259.5 73.5t82.5 229.5q0 108 -63.5 158.5t-194.5 50.5h-233z" />
<glyph unicode="Q" horiz-adv-x="1204" d="M100 365q0 55 9 108l67 426q76 485 541 485q211 0 326.5 -100.5t115.5 -286.5q0 -38 -10 -110l-68 -426q-65 -409 -405 -473q-2 -6 -2 -27q0 -129 131 -129q67 0 129 39q14 7 25 7q19 0 28 -23l29 -70q12 -34 -17 -53q-94 -58 -213 -58q-297 0 -297 267q0 24 3 36 q-189 11 -290.5 111t-101.5 277zM287 387q0 -250 262 -250q153 0 238 84.5t114 265.5l62 387q8 44 8 103q0 246 -260 246q-301 0 -357 -355l-59 -383q-8 -41 -8 -98z" />
<glyph unicode="R" horiz-adv-x="1163" d="M94 41l203 1284q6 35 43 35h367q426 0 426 -352q0 -392 -363 -457l227 -506q5 -12 5 -21q0 -24 -33 -24h-123q-33 0 -45 31l-213 506h-232l-77 -502q-6 -35 -43 -35h-105q-38 0 -38 32q0 4 1 9zM383 698h221q177 0 258.5 71t81.5 224q0 205 -256 205h-225z" />
<glyph unicode="S" horiz-adv-x="1048" d="M49 174q-8 12 -8 23q0 17 18 30l74 60q14 11 26 11q16 0 29 -19q106 -142 320 -142q140 0 222.5 70.5t82.5 191.5q0 80 -59.5 124t-208.5 73q-199 38 -283 116t-84 222q0 208 135 328q134 122 365 122q273 0 391 -167q9 -13 9 -25q0 -16 -17 -29l-76 -59q-13 -10 -25 -10 q-16 0 -30 20q-83 109 -260 109q-139 0 -223.5 -71.5t-84.5 -190.5q0 -82 60 -127t211 -74q199 -38 281.5 -115t82.5 -219q0 -207 -135 -330q-136 -121 -364 -121q-311 0 -449 199z" />
<glyph unicode="T" horiz-adv-x="1009" d="M160 1239l14 86q6 35 43 35h850q38 0 38 -32q0 -4 -1 -9l-12 -86q-6 -35 -43 -35h-336l-185 -1163q-6 -35 -43 -35h-104q-38 0 -38 32q0 4 1 9l184 1157h-331q-38 0 -38 32q0 4 1 9z" />
<glyph unicode="U" horiz-adv-x="1204" d="M123 350q0 63 8 107l137 868q6 35 43 35h105q38 0 38 -32q0 -4 -1 -9l-136 -852q-8 -41 -8 -94q0 -236 242 -236q142 0 222 81t106 253l135 854q6 35 43 35h98q38 0 38 -32q0 -4 -1 -9l-137 -875q-73 -469 -514 -469q-201 0 -309.5 97.5t-108.5 277.5z" />
<glyph unicode="V" horiz-adv-x="1165" d="M190 1319q-1 5 -1 9q0 32 38 32h107q37 0 43 -35l168 -1065h4l508 1071q16 29 47 29h108q23 0 31 -12q4 -6 4 -13q0 -9 -6 -20l-618 -1286q-16 -29 -48 -29h-129q-37 0 -43 35z" />
<glyph unicode="W" horiz-adv-x="1746" d="M190 1319v6q0 35 37 35h115q38 0 41 -37l92 -1024h4l434 1030q12 31 45 31h95q38 0 41 -37l108 -1024h4l422 1030q12 31 45 31h117q35 0 35 -26q0 -8 -4 -19l-547 -1284q-12 -31 -45 -31h-133q-38 0 -41 37l-99 960h-4l-407 -966q-12 -31 -45 -31h-131q-38 0 -41 37z" />
<glyph unicode="X" horiz-adv-x="1161" d="M4 14q-2 4 -2 10q0 11 12 25l494 651l-270 615q-5 12 -5 21q0 24 33 24h121q33 0 45 -31l203 -491l362 497q19 25 50 25h127q24 0 30 -14q2 -4 2 -8q0 -11 -10 -25l-467 -619l285 -649q5 -12 5 -21q0 -24 -34 -24h-121q-33 0 -45 31l-219 528l-389 -534q-19 -25 -49 -25 h-125q-25 0 -33 14z" />
<glyph unicode="Y" horiz-adv-x="1085" d="M162 1315q-5 12 -5 21q0 24 33 24h121q33 0 45 -31l232 -559l405 565q19 25 49 25h127q25 0 32 -14q2 -4 2 -9q0 -11 -9 -24l-541 -719l-88 -559q-6 -35 -43 -35h-104q-38 0 -38 32q0 4 1 9l88 563z" />
<glyph unicode="Z" horiz-adv-x="1069" d="M12 41l15 100q3 27 20 47l821 1010h-600q-38 0 -38 32q0 4 1 9l15 86q6 35 43 35h788q38 0 38 -32q0 -4 -1 -9l-16 -102q-3 -25 -21 -46l-821 -1009h641q38 0 38 -32q0 -4 -1 -9l-12 -86q-6 -35 -43 -35h-830q-38 0 -38 32q0 4 1 9z" />
<glyph unicode="[" horiz-adv-x="673" d="M84 -147l233 1474q3 33 37 33h336q39 0 33 -37l-10 -68q-6 -32 -39 -32h-207l-199 -1270h201q37 0 31 -37l-11 -68q-3 -32 -36 -32h-338q-37 0 -31 37z" />
<glyph unicode="\" horiz-adv-x="729" d="M195 1321q-9 39 30 39h82q31 0 37 -31l264 -1290q9 -39 -30 -39h-82q-31 0 -37 31z" />
<glyph unicode="]" horiz-adv-x="673" d="M-10 -147l10 67q3 33 37 33h207l198 1270h-198q-37 0 -31 37l10 67q3 33 37 33h338q37 0 31 -37l-234 -1475q-3 -32 -37 -32h-338q-36 0 -30 37z" />
<glyph unicode="^" d="M60.5 541.5q-6.5 13.5 7.5 33.5l510 678q16 25 47 25h82q32 0 45 -29l292 -676q17 -45 -28 -45h-88q-33 0 -45 31l-234 545l-407 -551q-16 -25 -47 -25h-103q-25 0 -31.5 13.5z" />
<glyph unicode="_" horiz-adv-x="1024" d="M-115 -215l17 102h1024l-17 -102h-1024z" />
<glyph unicode="`" horiz-adv-x="1024" d="M438 1430q-21 40 25 40h98q29 0 41 -26l113 -246q17 -39 -25 -39h-80q-29 0 -39 23z" />
<glyph unicode="a" horiz-adv-x="933" d="M41 260q0 164 105 252t303 88h229l4 25q6 44 6 77q0 189 -201 189q-114 0 -208 -76q-16 -13 -29 -13q-17 0 -29 21l-35 58q-18 30 13 55q138 102 311 102q171 0 261.5 -80t90.5 -233q0 -49 -8 -90l-45 -279q-59 -381 -434 -381q-159 0 -246.5 75t-87.5 210zM211 266 q0 -143 176 -143q110 0 171.5 62t84.5 196l12 78h-200q-117 0 -180.5 -50t-63.5 -143z" />
<glyph unicode="b" horiz-adv-x="999" d="M98 283q0 39 6 86l164 1030q6 35 43 35h90q38 0 38 -32q0 -4 -1 -9l-71 -449h4q88 94 239 94q155 0 236.5 -76.5t81.5 -222.5q0 -51 -8 -92l-46 -291q-62 -381 -428 -381q-167 0 -257.5 80t-90.5 228zM270 301q0 -178 185 -178q110 0 171 62t81 196l41 254q6 43 6 78 q0 178 -185 178q-214 0 -254 -258l-39 -254q-6 -43 -6 -78z" />
<glyph unicode="c" horiz-adv-x="829" d="M72 291q0 33 8 88l43 270q61 389 428 389q169 0 272 -92q14 -14 13.5 -28t-13.5 -27l-49 -53q-22 -28 -53 0q-59 53 -170 53q-221 0 -262 -268l-37 -234q-6 -40 -6 -76q0 -190 200 -190q95 0 183 70q14 12 26 12q15 0 29 -19l35 -51q21 -31 -6 -55q-123 -105 -287 -105 q-171 0 -262.5 81.5t-91.5 234.5z" />
<glyph unicode="d" horiz-adv-x="999" d="M72 283q0 39 6 86l45 288q61 381 407 381q175 0 232 -112h4l76 473q6 35 43 35h90q38 0 38 -32q0 -4 -1 -9l-166 -1037q-61 -381 -426 -381q-167 0 -257.5 80t-90.5 228zM244 301q0 -178 184 -178q110 0 171 62t81 196l41 254q6 41 6 74q0 182 -182 182 q-110 0 -171.5 -62t-84.5 -196l-39 -254q-6 -43 -6 -78z" />
<glyph unicode="e" horiz-adv-x="937" d="M72 287q0 53 8 92l43 278q61 381 422 381q164 0 252 -78.5t88 -226.5q0 -39 -6 -86l-25 -164q-6 -34 -43 -34h-551l-10 -60q-6 -44 -6 -76q0 -98 53 -144t164 -46q109 0 213 88q14 13 27 13q15 0 26 -19l37 -55q22 -31 -6 -56q-131 -119 -312 -119q-183 0 -278.5 79.5 t-95.5 232.5zM283 590h428l6 45q6 43 6 78q0 178 -182 178q-109 0 -169 -62t-83 -196z" />
<glyph unicode="f" horiz-adv-x="675" d="M106 907l11 72q6 35 43 35h108l15 96q59 348 368 348q123 0 205 -43q20 -9 20 -27q0 -11 -6 -24l-32 -66q-17 -33 -50 -16q-60 29 -133 29q-169 0 -204 -213l-15 -84h277q38 0 38 -32q0 -4 -1 -9l-11 -72q-6 -35 -43 -35h-282l-131 -831q-6 -35 -43 -35h-90q-38 0 -38 32 q0 4 1 9l131 825h-101q-38 0 -38 32q0 4 1 9z" />
<glyph unicode="g" horiz-adv-x="999" d="M59 -182l45 57q13 17 28 17q14 0 28 -13q90 -84 231 -84q220 0 254 230l12 75h-4q-86 -92 -233 -92q-155 0 -238.5 78t-83.5 221q0 55 8 94l41 256q59 381 426 381q168 0 259.5 -79t91.5 -226q0 -45 -9 -88l-102 -641q-26 -171 -135.5 -263.5t-286.5 -92.5 q-210 0 -330 114q-13 13 -13 27t11 29zM272 336q0 -180 185 -180q209 0 250 258l36 221q7 51 7 76q0 180 -185 180q-108 0 -168 -63t-84 -195l-34 -221q-7 -51 -7 -76z" />
<glyph unicode="h" horiz-adv-x="1021" d="M70 41l215 1358q6 35 43 35h90q38 0 38 -32q0 -4 -1 -9l-72 -447h4q86 92 238 92q149 0 228 -76t79 -217q0 -53 -8 -92l-99 -618q-6 -35 -43 -35h-90q-38 0 -38 32q0 4 1 9l97 602q6 43 6 76q0 172 -178 172q-203 0 -244 -250l-96 -606q-6 -35 -43 -35h-91q-37 0 -37 31 q0 5 1 10z" />
<glyph unicode="i" horiz-adv-x="444" d="M68 41l149 938q6 35 43 35h90q38 0 38 -32q0 -4 -1 -9l-149 -938q-6 -35 -43 -35h-91q-37 0 -37 31q0 5 1 10zM248 1298q0 54 31.5 86.5t82.5 32.5q44 0 72.5 -27.5t28.5 -70.5q0 -51 -33.5 -84t-83.5 -33q-43 0 -70.5 27.5t-27.5 68.5z" />
<glyph unicode="j" horiz-adv-x="444" d="M-162 -287l10 72q6 35 43 35q142 0 166 153l160 1006q6 35 43 35h90q38 0 38 -32q0 -4 -1 -9l-160 -1006q-49 -295 -325 -295h-27q-38 0 -38 32q0 4 1 9zM248 1298q0 54 31.5 86.5t82.5 32.5q44 0 72.5 -27.5t28.5 -70.5q0 -51 -33.5 -84t-83.5 -33q-43 0 -70.5 27.5 t-27.5 68.5z" />
<glyph unicode="k" horiz-adv-x="921" d="M70 41l215 1358q6 35 43 35h90q38 0 38 -32q0 -4 -1 -9l-129 -811h4l413 411q21 21 50 21h120q26 0 32 -14q1 -3 1 -7q0 -12 -14 -26l-461 -451l334 -469q14 -20 7 -33.5t-32 -13.5h-110q-28 0 -47 25l-314 452l-69 -442q-6 -35 -43 -35h-91q-37 0 -37 31q0 5 1 10z" />
<glyph unicode="l" horiz-adv-x="446" d="M70 41l215 1358q6 35 43 35h90q38 0 37 -32v-9l-215 -1358q-6 -35 -43 -35h-91q-37 0 -37 31q0 5 1 10z" />
<glyph unicode="m" horiz-adv-x="1544" d="M59 41l99 625q58 372 393 372q208 0 278 -137h5q94 137 296 137q156 0 240 -76.5t84 -218.5q0 -33 -8 -88l-98 -620q-6 -35 -43 -35h-91q-37 0 -37 31q0 4 1 10l96 604q6 44 6 76q0 170 -166 170q-99 0 -155 -60t-76 -188l-95 -608q-6 -35 -43 -35h-90q-38 0 -38 32 q0 4 1 9l97 604q6 43 6 78q0 168 -168 168q-98 0 -153 -58t-74 -180l-97 -618q-6 -35 -43 -35h-90q-38 0 -38 32q0 4 1 9z" />
<glyph unicode="n" horiz-adv-x="1011" d="M59 41l99 625q58 372 420 372q165 0 253.5 -77.5t88.5 -223.5q0 -33 -7 -84l-98 -618q-6 -35 -43 -35h-90q-38 0 -38 32q0 4 1 9l96 600q7 47 7 76q0 174 -179 174q-106 0 -165.5 -61.5t-79.5 -190.5l-95 -604q-6 -35 -43 -35h-90q-38 0 -38 32q0 4 1 9z" />
<glyph unicode="o" horiz-adv-x="972" d="M70 283q0 41 6 84l47 290q61 381 428 381q167 0 257.5 -79.5t90.5 -227.5q0 -37 -6 -84l-45 -293q-59 -379 -428 -379q-167 0 -258.5 80t-91.5 228zM244 301q0 -178 184 -178q110 0 171 62t81 196l41 254q6 43 6 78q0 178 -184 178q-108 0 -168.5 -62t-83.5 -196 l-41 -254q-6 -43 -6 -78z" />
<glyph unicode="p" horiz-adv-x="999" d="M8 -287l150 944q58 381 426 381q168 0 259 -79t91 -226q0 -47 -8 -88l-45 -289q-61 -381 -406 -381q-174 0 -233 115h-4l-62 -383q-6 -35 -43 -35h-88q-38 0 -38 32q0 4 1 9zM279 307q0 -184 186 -184q107 0 166.5 63t83.5 195l39 254q6 43 6 76q0 180 -185 180 q-211 0 -251 -258l-39 -254q-6 -41 -6 -72z" />
<glyph unicode="q" horiz-adv-x="999" d="M70 276q0 52 8 93l45 288q58 381 428 381q168 0 259 -79t91 -226q0 -49 -8 -88l-148 -938q-6 -35 -43 -35h-90q-38 0 -38 32q0 4 1 9l58 357h-4q-89 -95 -240 -95q-155 0 -237 77.5t-82 223.5zM244 303q0 -180 186 -180q210 0 250 258l41 254q6 43 6 76q0 180 -184 180 q-213 0 -254 -258l-39 -254q-6 -43 -6 -76z" />
<glyph unicode="r" horiz-adv-x="745" d="M59 41l101 633q58 364 381 364q129 0 229 -65q15 -11 15 -27q0 -12 -9 -26l-41 -60q-20 -28 -53 -8q-56 39 -137 39q-93 0 -145.5 -55.5t-71.5 -173.5l-99 -627q-6 -35 -43 -35h-90q-38 0 -38 32q0 4 1 9z" />
<glyph unicode="s" horiz-adv-x="845" d="M43 94q-14 13 -13.5 26.5t13.5 26.5l49 58q24 31 53 2q90 -84 246 -84q106 0 166.5 47t60.5 129q0 60 -44 91.5t-160 51.5q-153 26 -217 83.5t-64 168.5q0 160 110.5 252t301.5 92q177 0 284 -88q16 -13 16 -27q0 -12 -11 -26l-48 -59q-22 -29 -53 -4q-72 57 -190 57 q-113 0 -176.5 -46t-63.5 -128q0 -55 44 -84.5t153 -46.5q159 -25 225 -84.5t66 -177.5q0 -162 -107 -255.5t-293 -93.5q-232 0 -348 119z" />
<glyph unicode="t" horiz-adv-x="727" d="M106 907l11 72q6 35 43 35h106l37 235q6 35 43 35h90q38 0 38 -32q0 -4 -1 -9l-37 -229h277q38 0 38 -32q0 -4 -1 -9l-11 -72q-6 -35 -43 -35h-282l-88 -565q-1 -9 -2 -19.5t-1.5 -16t-0.5 -9.5q0 -133 137 -133q45 0 98 24q14 7 24 7q19 0 27 -25l23 -66q9 -36 -21 -51 q-73 -37 -170 -37q-140 0 -215 65.5t-75 188.5q0 35 6 76l88 561h-101q-38 0 -38 32q0 4 1 9z" />
<glyph unicode="u" horiz-adv-x="999" d="M96 270q0 40 6 84l99 625q6 35 43 35h90q38 0 38 -32q0 -4 -1 -9l-97 -608q-6 -41 -6 -70q0 -172 176 -172q104 0 162 58t78 181l96 617q6 35 43 35h86q38 0 38 -32q0 -4 -1 -9l-100 -631q-59 -367 -412 -367q-164 0 -251 76t-87 219z" />
<glyph unicode="v" horiz-adv-x="929" d="M123 971q-1 5 -1 10q0 33 36 33h98q37 0 43 -35l119 -772h4l371 778q16 29 47 29h98q35 0 35 -23q0 -9 -6 -22l-469 -940q-16 -29 -45 -29h-119q-35 0 -41 35z" />
<glyph unicode="w" horiz-adv-x="1415" d="M125 973q-1 5 -1 10q0 31 36 31h98q38 0 41 -37l82 -723h4l326 731q13 29 45 29h69q35 0 41 -37l95 -717h4l313 725q13 29 45 29h98q34 0 34 -24q0 -9 -5 -21l-428 -940q-13 -29 -45 -29h-103q-34 0 -40 37l-86 655h-5l-301 -663q-13 -29 -45 -29h-102q-35 0 -41 37z" />
<glyph unicode="x" horiz-adv-x="948" d="M-6 14q-2 4 -2 9q0 11 12 24l379 481l-207 441q-10 20 -1.5 32.5t32.5 12.5h104q33 0 45 -31l148 -342l260 348q16 25 47 25h107q26 0 34 -14q2 -4 2 -9q0 -11 -12 -24l-352 -447l225 -475q10 -20 1.5 -32.5t-32.5 -12.5h-104q-32 0 -45 29l-166 377l-287 -381 q-16 -25 -47 -25h-108q-25 0 -33 14z" />
<glyph unicode="y" horiz-adv-x="1021" d="M72 -182l45 57q13 17 28 17q13 0 27 -13q90 -84 231 -84q222 0 256 230l13 75h-4q-89 -92 -240 -92q-148 0 -226.5 75t-78.5 216q0 55 8 94l92 586q6 35 43 35h90q38 0 38 -32q0 -4 -1 -9l-90 -570q-6 -41 -6 -73q0 -174 178 -174q205 0 246 250l90 573q6 35 43 35h90 q38 0 38 -32q0 -4 -1 -9l-156 -969q-26 -171 -135.5 -263.5t-286.5 -92.5q-209 0 -329 114q-13 13 -13 27t11 29z" />
<glyph unicode="z" horiz-adv-x="874" d="M6 41l12 88q3 26 21 47l610 690h-438q-38 0 -38 32q0 4 1 9l10 72q6 35 43 35h607q37 0 37 -31q0 -4 -1 -10l-14 -88q-3 -27 -20 -47l-611 -691h480q37 0 37 -31q0 -4 -1 -10l-10 -71q-6 -35 -43 -35h-645q-38 0 -38 32q0 4 1 9z" />
<glyph unicode="{" horiz-adv-x="694" d="M98 557l11 66q6 32 36 32q125 0 152 181l37 231q25 159 106.5 226t247.5 67h23q38 0 32 -37l-10 -68q-6 -32 -45 -32q-87 0 -131 -42.5t-57 -140.5l-35 -215q-30 -202 -189 -237v-4q121 -35 121 -168q0 -30 -6 -64l-35 -215q-6 -35 -6 -61q0 -65 33 -94t106 -29 q37 0 31 -37l-10 -68q-6 -32 -37 -32h-31q-266 0 -266 217q0 33 6 73l37 232q6 38 6 63q0 119 -102 119q-31 0 -25 37z" />
<glyph unicode="|" horiz-adv-x="540" d="M80 -293l268 1696q3 31 35 31h76q34 0 28 -35l-268 -1696q-3 -31 -35 -31h-75q-35 0 -29 35z" />
<glyph unicode="}" horiz-adv-x="694" d="M-10 -147l10 67q6 33 45 33q87 0 131 42t57 140l35 215q30 203 189 238v4q-121 35 -121 168q0 28 6 63l35 215q6 34 6 62q0 65 -33 94t-106 29q-37 0 -31 37l10 67q6 33 37 33h31q266 0 266 -217q0 -33 -6 -74l-37 -231q-6 -37 -6 -64q0 -119 102 -119q31 0 25 -37 l-10 -65q-6 -33 -37 -33q-125 0 -152 -180l-37 -231q-25 -159 -106.5 -226t-247.5 -67h-22q-39 0 -33 37z" />
<glyph unicode="~" d="M59 522q138 199 320 199q106 0 231 -82q94 -64 162 -64q97 0 197 130q23 33 55 8l55 -41q30 -21 8 -56q-137 -198 -317 -198q-114 0 -233 84q-88 61 -160 61q-99 0 -199 -127q-23 -33 -55 -10l-55 41q-30 21 -9 55z" />
<glyph unicode="&#xa1;" horiz-adv-x="481" d="M88 41l86 549l92 375q6 22 31 22h45q28 0 25 -26l-25 -371l-86 -555q-6 -35 -43 -35h-88q-43 0 -37 41zM254 1262q0 53 35.5 87.5t85.5 34.5q47 0 76.5 -28.5t29.5 -75.5q0 -51 -36 -87t-87 -36q-46 0 -75 30t-29 75z" />
<glyph unicode="&#xa2;" d="M168 346q0 53 8 92l37 230q64 396 446 405l19 119q3 29 33 29h55q33 0 27 -33l-19 -121q137 -21 211 -92q25 -25 -2 -53l-51 -56q-22 -28 -53 0q-46 40 -127 52l-119 -746q78 9 158 76q32 29 53 -6l41 -60q21 -31 -6 -55q-123 -97 -271 -109l-20 -133q-3 -28 -33 -28h-55 q-32 0 -29 32l21 129q-159 14 -241.5 97.5t-82.5 230.5zM344 371q0 -175 172 -199l119 748q-110 -10 -170.5 -77.5t-83.5 -203.5l-31 -193q-6 -41 -6 -75z" />
<glyph unicode="&#xa3;" d="M96 41l10 76q3 25 27 49q96 87 137 169t41 187h-135q-37 0 -31 37l11 74q3 33 37 33h96q-2 9 -13 39q-30 91 -30 172q0 195 123 309q126 117 336 117q261 0 374 -162q24 -34 -10 -54l-68 -49q-31 -25 -55 9q-72 100 -244 100q-128 0 -203 -75t-75 -204q0 -62 27 -151 q6 -24 12 -51h360q37 0 31 -37l-10 -74q-3 -33 -37 -33h-328q0 -212 -164 -362v-4h555q43 0 37 -41l-12 -80q-6 -35 -43 -35h-719q-43 0 -37 41z" />
<glyph unicode="&#xa4;" d="M84 248q-25 28 2 49l168 147q-35 72 -35 154q0 146 88 256l-104 119q-21 24 4 49l57 53q24 24 49 -4l107 -121q86 51 196 51q126 0 213 -69l162 143q24 21 49 -4l47 -51q25 -28 -2 -49l-167 -148q34 -69 34 -155q0 -147 -88 -254l105 -119q21 -24 -4 -49l-58 -53 q-24 -24 -49 4l-106 120q-91 -49 -197 -49q-124 0 -213 68l-162 -143q-24 -21 -49 4zM352 608q0 -92 58.5 -149.5t152.5 -57.5q108 0 182 74q76 73 76 184q0 92 -58.5 150.5t-152.5 58.5q-109 0 -184 -75q-74 -74 -74 -185z" />
<glyph unicode="&#xa5;" d="M88 264l12 74q6 31 39 31h299l23 145h-293q-39 0 -33 37l12 74q6 30 39 30h291l-276 578q-20 45 28 45h111q32 0 45 -29l205 -463l352 467q16 25 47 25h117q26 0 33.5 -14t-9.5 -33l-456 -576h276q39 0 33 -37l-12 -73q-6 -31 -39 -31h-295l-23 -145h289q39 0 33 -37 l-12 -74q-6 -31 -39 -31h-293l-31 -192q-6 -35 -43 -35h-96q-43 0 -37 41l31 186h-295q-39 0 -33 37z" />
<glyph unicode="&#xa6;" horiz-adv-x="540" d="M80 -293l102 651q3 31 35 31h76q35 0 29 -35l-103 -651q-3 -31 -35 -31h-75q-35 0 -29 35zM244 752l104 651q6 31 35 31h76q34 0 28 -35l-104 -651q-3 -31 -35 -31h-76q-34 0 -28 35z" />
<glyph unicode="&#xa7;" horiz-adv-x="1132" d="M41 -176q-21 30 8 53l60 47q31 22 53 -6q94 -125 315 -125q135 0 218 64.5t83 167.5q0 70 -61 106.5t-215 56.5q-206 26 -293.5 93.5t-87.5 195.5q0 249 239 357v4q-116 64 -116 209q0 188 129 299q127 112 346 112q263 0 373 -149q23 -33 -11 -54l-61 -47q-30 -21 -53 9 q-78 96 -258 96q-131 0 -215 -65.5t-84 -168.5q0 -73 60.5 -109.5t217.5 -56.5q203 -26 289 -91.5t86 -190.5q0 -267 -248 -361v-4q127 -62 127 -211q0 -186 -129 -297q-128 -110 -344 -110q-302 0 -428 176zM289 516q0 -86 69.5 -128.5t249.5 -65.5q130 17 209.5 91 t79.5 179q0 80 -68 121q-66 40 -268 67q-122 -19 -197 -91.5t-75 -172.5z" />
<glyph unicode="&#xa8;" horiz-adv-x="1024" d="M367 1300q0 48 30.5 79.5t77.5 31.5q41 0 67.5 -26.5t26.5 -67.5q0 -47 -31.5 -78t-76.5 -31q-43 0 -68.5 25.5t-25.5 66.5zM709 1303q0 47 30.5 77.5t75.5 30.5q43 0 69.5 -26.5t26.5 -67.5q0 -47 -30.5 -78t-77.5 -31q-41 0 -67.5 27t-26.5 68z" />
<glyph unicode="&#xa9;" horiz-adv-x="1568" d="M100 590q0 325 234 559q232 235 559 235q279 0 453 -174q176 -173 176 -440q0 -324 -234 -561q-234 -234 -559 -234q-278 0 -453 172q-176 176 -176 443zM219 594q0 -226 143 -369t373 -143q272 0 469 203q199 202 199 481q0 223 -146 369q-143 143 -372 143 q-272 0 -469 -203t-197 -481zM520 504q0 26 6 61l37 238q44 268 301 268q164 0 226 -129q12 -26 -17 -39l-43 -22q-25 -15 -41 14q-40 70 -133 70q-147 0 -174 -181l-35 -211q-4 -50 -4 -51q0 -127 127 -127q86 0 148 80q18 27 43 8l38 -28q25 -19 7 -43q-88 -123 -244 -123 q-116 0 -179 56t-63 159z" />
<glyph unicode="&#xaa;" horiz-adv-x="718" d="M88 705q0 130 79.5 199t233.5 69h168l2 12q4 32 4 53q0 136 -149 136q-79 0 -152 -58q-31 -22 -49 12l-28 52q-15 27 14 49q109 74 235 74q134 0 206.5 -64t72.5 -182q0 -34 -4 -62l-35 -219q-47 -293 -334 -293q-124 0 -194 59t-70 163zM238 713q0 -101 122 -101 q154 0 181 185l8 51h-137q-174 0 -174 -135z" />
<glyph unicode="&#xab;" horiz-adv-x="894" d="M72 481q-13 22 6 47l270 346q18 21 43 21h86q23 0 29 -12t-8 -31l-279 -354l162 -338q21 -41 -25 -41h-77q-29 0 -41 24zM453 481q-13 22 6 47l270 346q18 21 43 21h86q23 0 29 -12t-8 -31l-279 -354l162 -338q21 -41 -25 -41h-78q-29 0 -41 24z" />
<glyph unicode="&#xac;" d="M74 655l12 82q6 35 43 35h915q43 0 37 -41l-77 -500q-6 -34 -43 -34h-78q-43 0 -37 41l59 376h-794q-43 0 -37 41z" />
<glyph unicode="&#xad;" horiz-adv-x="679" d="M70 518l12 86q6 35 43 35h477q43 0 37 -41l-12 -86q-6 -35 -43 -35h-478q-42 0 -36 41z" />
<glyph unicode="&#xae;" horiz-adv-x="1568" d="M100 590q0 325 234 559q232 235 559 235q279 0 453 -174q176 -173 176 -440q0 -324 -234 -561q-234 -234 -559 -234q-278 0 -453 172q-176 176 -176 443zM219 594q0 -226 143 -369t373 -143q272 0 469 203q199 202 199 481q0 223 -146 369q-143 143 -372 143 q-272 0 -469 -203t-197 -481zM524 336l111 692q3 29 33 29h206q240 0 240 -191q0 -224 -199 -264l119 -262q15 -37 -22 -37h-74q-24 0 -37 25l-102 264h-113l-43 -260q-3 -29 -33 -29h-59q-33 0 -27 33zM702 698h117q172 0 172 152q0 100 -129 100h-119z" />
<glyph unicode="&#xaf;" horiz-adv-x="1024" d="M369 1264l10 65q3 33 37 33h471q37 0 31 -37l-11 -68q-6 -30 -39 -30h-469q-36 0 -30 37z" />
<glyph unicode="&#xb0;" horiz-adv-x="731" d="M135 965q0 145 98 239q99 99 240 99q122 0 199.5 -78t77.5 -197q0 -145 -99 -244q-101 -96 -239 -96q-123 0 -200 77.5t-77 199.5zM272 969q0 -67 41 -107.5t107 -40.5q79 0 135.5 58t56.5 143q0 66 -40.5 106.5t-106.5 40.5q-80 0 -136.5 -57.5t-56.5 -142.5z" />
<glyph unicode="&#xb1;" d="M-8 41l12 80q6 37 41 37h885q43 0 37 -41l-13 -82q-6 -35 -43 -35h-884q-41 0 -35 41zM84 623l12 82q6 34 43 34h367l49 326q6 35 43 35h78q43 0 37 -41l-49 -320h360q43 0 37 -41l-12 -82q-6 -34 -43 -34h-369l-51 -324q-6 -35 -43 -35h-78q-43 0 -37 41l51 318h-358 q-43 0 -37 41z" />
<glyph unicode="&#xb2;" horiz-adv-x="675" d="M137 776l8 53q3 24 19 37l342 297q57 51 79.5 88.5t22.5 81.5q0 48 -29.5 75.5t-84.5 27.5q-89 0 -164 -90q-19 -26 -43 -5l-39 37q-20 20 -4 43q103 127 262 127q105 0 167 -58t62 -155q0 -73 -32.5 -127.5t-118.5 -128.5l-262 -219v-4h303q32 0 26 -33l-8 -51 q-3 -29 -33 -29h-444q-32 0 -29 33z" />
<glyph unicode="&#xb3;" horiz-adv-x="675" d="M162 838q-18 21 4 43l37 34q24 21 43 -4q57 -69 170 -69q80 0 125 38t45 107q0 111 -158 111h-35q-17 0 -23.5 7.5t-4.5 24.5l8 48q3 28 33 28h30q187 0 187 131q0 99 -123 99q-90 0 -166 -76q-25 -25 -43 2l-35 41q-19 22 2 43q108 102 258 102q109 0 171.5 -53 t62.5 -147q0 -156 -142 -197v-4q105 -47 105 -166q0 -121 -78.5 -186.5t-220.5 -65.5q-169 0 -252 109z" />
<glyph unicode="&#xb4;" horiz-adv-x="1024" d="M541 1171q-6 12 6 29l196 250q17 20 43 20h109q23 0 28.5 -13t-8.5 -30l-215 -249q-19 -19 -41 -19h-92q-20 0 -26 12z" />
<glyph unicode="&#xb5;" horiz-adv-x="1021" d="M18 -287l199 1266q6 35 43 35h90q43 0 37 -41l-96 -602q-6 -37 -6 -70q0 -178 180 -178q106 0 166 60.5t80 189.5l94 606q6 35 43 35h90q43 0 37 -41l-101 -625q-59 -373 -389 -373q-168 0 -233 109h-4l-60 -377q-6 -35 -43 -35h-90q-43 0 -37 41z" />
<glyph unicode="&#xb6;" horiz-adv-x="1167" d="M123 934q0 254 134 377t415 123h450q35 0 29 -35l-268 -1696q-3 -31 -35 -31h-72q-34 0 -28 35l249 1585h-241l-252 -1589q-3 -31 -35 -31h-72q-34 0 -28 35l141 891q-387 15 -387 336z" />
<glyph unicode="&#xb7;" horiz-adv-x="477" d="M145 631q0 51 36 87t87 36q47 0 76 -30t29 -75q0 -53 -35.5 -88t-87.5 -35q-44 0 -74.5 30.5t-30.5 74.5z" />
<glyph unicode="&#xb8;" horiz-adv-x="1024" d="M219 -276l19 40q12 27 41 11q55 -25 102 -25q84 0 84 47q0 43 -94 43q-34 0 -23 33l58 154h94l-43 -121q129 -12 129 -115q0 -143 -203 -143q-89 0 -154 35q-23 13 -10 41z" />
<glyph unicode="&#xb9;" horiz-adv-x="675" d="M319 1313q-15 26 9 41l250 168q18 12 36 12h45q33 0 27 -33l-117 -729q-3 -29 -32 -29h-64q-33 0 -27 33l93 584l-150 -100q-29 -16 -43 10z" />
<glyph unicode="&#xba;" horiz-adv-x="753" d="M115 723q0 31 6 65l35 222q47 293 329 293q133 0 205 -62t72 -178q0 -31 -6 -66l-35 -221q-47 -293 -332 -293q-131 0 -202.5 62.5t-71.5 177.5zM264 741q0 -129 131 -129q153 0 180 185l31 194q4 28 4 56q0 127 -131 127q-150 0 -180 -185l-31 -194q-4 -50 -4 -54z" />
<glyph unicode="&#xbb;" horiz-adv-x="894" d="M26.5 131q-5.5 12 8.5 31l278 354l-161 338q-21 41 24 41h78q28 0 41 -25l166 -340q13 -22 -6 -47l-271 -344q-17 -20 -43 -20h-86q-23 0 -28.5 12zM407.5 131q-5.5 12 8.5 31l278 354l-162 338q-21 41 25 41h78q29 0 41 -25l166 -340q13 -22 -6 -47l-271 -344 q-17 -20 -43 -20h-86q-23 0 -28.5 12z" />
<glyph unicode="&#xbc;" horiz-adv-x="1630" d="M281 1057q-15 27 8 41l250 168q18 12 36 12h46q32 0 26 -33l-117 -729q-3 -29 -32 -29h-64q-32 0 -26 33l92 584l-150 -100q-29 -16 -43 10zM360 10q-5 10 7 27l999 1223q15 18 37 18h82q20 0 25 -10t-7 -27l-999 -1223q-15 -18 -37 -18h-82q-20 0 -25 10zM977 207l10 65 q3 18 19 37l419 465q17 17 37 17h70q33 0 27 -33l-76 -471h61q32 0 29 -33l-8 -51q-3 -29 -33 -29h-66l-24 -145q-3 -29 -33 -29h-63q-33 0 -27 33l22 141h-335q-35 0 -29 33zM1130 287h228l51 309h-4z" />
<glyph unicode="&#xbd;" horiz-adv-x="1630" d="M272 10q-5 10 7 27l999 1223q15 18 37 18h82q20 0 25 -10t-7 -27l-999 -1223q-15 -18 -37 -18h-82q-20 0 -25 10zM274 1057q-15 26 9 41l249 168q18 12 37 12h45q33 0 27 -33l-117 -729q-3 -29 -32 -29h-64q-33 0 -27 33l93 584l-150 -100q-29 -16 -43 10zM981 33l8 53 q3 24 19 37l342 297q57 51 79.5 88.5t22.5 81.5q0 48 -30 75t-85 27q-88 0 -163 -90q-19 -26 -44 -4l-38 37q-21 21 -5 43q103 127 263 127q105 0 167 -58t62 -155q0 -73 -32.5 -127.5t-119.5 -128.5l-262 -219v-4h303q33 0 27 -33l-8 -51q-3 -29 -33 -29h-444q-32 0 -29 33 z" />
<glyph unicode="&#xbe;" horiz-adv-x="1630" d="M123 582q-18 21 4 43l37 34q24 21 43 -4q57 -69 170 -69q80 0 125 38t45 107q0 111 -158 111h-35q-17 0 -23.5 7.5t-4.5 24.5l8 48q3 28 33 28h30q187 0 187 131q0 99 -123 99q-90 0 -166 -76q-25 -25 -43 2l-35 41q-19 22 2 43q108 102 258 102q109 0 171.5 -53 t62.5 -147q0 -156 -142 -197v-4q105 -46 105 -166q0 -121 -78.5 -186.5t-220.5 -65.5q-169 0 -252 109zM366 10q-5 10 7 27l999 1223q15 18 37 18h82q20 0 25 -10t-7 -27l-999 -1223q-15 -18 -37 -18h-82q-20 0 -25 10zM979 207l10 65q3 18 19 37l419 465q17 17 37 17h70 q33 0 27 -33l-76 -471h61q32 0 29 -33l-8 -51q-3 -29 -33 -29h-66l-24 -145q-3 -29 -33 -29h-63q-33 0 -27 33l22 141h-335q-35 0 -29 33zM1133 287h227l51 309h-4z" />
<glyph unicode="&#xbf;" horiz-adv-x="929" d="M18 305q0 135 62 225t211 168q109 56 155 106.5t58 123.5l4 24q6 35 43 35h80q43 0 37 -41l-6 -39q-17 -105 -77 -179.5t-186 -145.5q-116 -65 -160 -124.5t-44 -146.5q0 -85 55.5 -132.5t152.5 -47.5q181 0 312 168q27 34 57 4l55 -55q27 -21 0 -55q-176 -218 -438 -218 q-170 0 -270.5 90t-100.5 240zM524 1262q0 53 35.5 87.5t87.5 34.5q45 0 75 -29t30 -75q0 -51 -36 -87t-87 -36q-47 0 -76 30t-29 75z" />
<glyph unicode="&#xc0;" horiz-adv-x="1202" d="M6 45l637 1286q16 29 45 29h129q35 0 41 -35l232 -1282q6 -43 -35 -43h-107q-37 0 -43 35l-39 235h-557l-114 -241q-16 -29 -48 -29h-112q-49 0 -29 45zM387 432h455l-115 709h-4zM580 1763q-21 41 24 41h98q29 0 41 -26l113 -246q17 -39 -25 -39h-79q-26 0 -39 23z" />
<glyph unicode="&#xc1;" horiz-adv-x="1202" d="M6 45l637 1286q16 29 45 29h129q35 0 41 -35l232 -1282q6 -43 -35 -43h-107q-37 0 -43 35l-39 235h-557l-114 -241q-16 -29 -48 -29h-112q-49 0 -29 45zM387 432h455l-115 709h-4zM696.5 1505q-6.5 12 5.5 29l197 250q17 20 43 20h109q23 0 28.5 -13t-8.5 -30l-215 -250 q-18 -18 -41 -18h-92q-20 0 -26.5 12z" />
<glyph unicode="&#xc2;" horiz-adv-x="1202" d="M6 45l637 1286q16 29 45 29h129q35 0 41 -35l232 -1282q6 -43 -35 -43h-107q-37 0 -43 35l-39 235h-557l-114 -241q-16 -29 -48 -29h-112q-49 0 -29 45zM387 432h455l-115 709h-4zM514.5 1505q-5.5 12 7.5 29l213 250q17 20 43 20h92q29 0 41 -24l131 -248q8 -17 2 -28 t-24 -11h-76q-26 0 -39 23l-90 170l-149 -175q-18 -18 -41 -18h-84q-21 0 -26.5 12z" />
<glyph unicode="&#xc3;" horiz-adv-x="1202" d="M6 45l637 1286q16 29 45 29h129q35 0 41 -35l232 -1282q6 -43 -35 -43h-107q-37 0 -43 35l-39 235h-557l-114 -241q-16 -29 -48 -29h-112q-49 0 -29 45zM387 432h455l-115 709h-4zM489 1550q56 209 207 209q66 0 135 -63q51 -45 80 -45q59 0 86 84q9 26 35 26h51 q36 0 27 -37q-58 -208 -207 -208q-68 0 -137 63q-51 45 -80 45q-59 0 -86 -84q-9 -27 -35 -27h-49q-36 0 -27 37z" />
<glyph unicode="&#xc4;" horiz-adv-x="1202" d="M6 45l637 1286q16 29 45 29h129q35 0 41 -35l232 -1282q6 -43 -35 -43h-107q-37 0 -43 35l-39 235h-557l-114 -241q-16 -29 -48 -29h-112q-49 0 -29 45zM387 432h455l-115 709h-4zM528 1634q0 47 31 79t78 32q41 0 67.5 -26.5t26.5 -67.5q0 -47 -31.5 -78t-76.5 -31 q-43 0 -69 25.5t-26 66.5zM870 1636q0 47 31 78t76 31q43 0 69.5 -26.5t26.5 -67.5q0 -47 -30.5 -78t-77.5 -31q-41 0 -68 26.5t-27 67.5z" />
<glyph unicode="&#xc5;" horiz-adv-x="1202" d="M6 45l637 1286q16 29 45 29h129q35 0 41 -35l232 -1282q6 -43 -35 -43h-107q-37 0 -43 35l-39 235h-557l-114 -241q-16 -29 -48 -29h-112q-49 0 -29 45zM387 432h455l-115 709h-4zM631 1632q0 77 54 131t130 54q68 0 112 -43t44 -109q0 -77 -53.5 -130.5t-129.5 -53.5 q-69 0 -113 42.5t-44 108.5zM723 1638q0 -67 70 -67q35 0 60.5 25.5t25.5 62.5q0 30 -19.5 48.5t-50.5 18.5q-35 0 -60.5 -25.5t-25.5 -62.5z" />
<glyph unicode="&#xc6;" horiz-adv-x="1792" d="M-42 13.5q-7 13.5 7 33.5l938 1288q16 25 49 25h852q43 0 37 -41l-12 -86q-6 -35 -43 -35h-631l-70 -430h537q43 0 37 -41l-14 -86q-6 -35 -43 -35h-541l-72 -444h627q43 0 37 -41l-15 -86q-6 -35 -43 -35h-772q-43 0 -37 41l37 229h-485l-176 -245q-16 -25 -47 -25h-125 q-25 0 -32 13.5zM455 432h393l115 713h-5z" />
<glyph unicode="&#xc7;" horiz-adv-x="1079" d="M100 362q0 58 9 111l67 426q76 485 539 485q309 0 403 -245q13 -38 -20 -52l-82 -36q-36 -16 -51 22q-65 150 -260 150q-295 0 -351 -355l-59 -383q-8 -44 -8 -102q0 -246 248 -246q191 0 305 166q20 33 53 10l72 -47q31 -19 10 -53q-155 -229 -432 -238l-25 -69 q129 -12 129 -115q0 -143 -203 -143q-88 0 -153 35q-23 13 -10 41l18 40q12 27 41 11q55 -25 102 -25q84 0 84 47q0 43 -94 43q-33 0 -22 33l39 107q-168 17 -258.5 115t-90.5 267z" />
<glyph unicode="&#xc8;" horiz-adv-x="1101" d="M94 41l203 1284q6 35 43 35h772q41 0 35 -41l-12 -84q-3 -37 -41 -37h-631l-70 -430h535q43 0 37 -41l-15 -86q-6 -35 -43 -35h-538l-72 -444h625q42 0 36 -41l-14 -86q-6 -35 -43 -35h-770q-43 0 -37 41zM553 1763q-21 41 25 41h98q29 0 41 -26l112 -246q17 -39 -24 -39 h-80q-26 0 -39 23z" />
<glyph unicode="&#xc9;" horiz-adv-x="1101" d="M94 41l203 1284q6 35 43 35h772q41 0 35 -41l-12 -84q-3 -37 -41 -37h-631l-70 -430h535q43 0 37 -41l-15 -86q-6 -35 -43 -35h-538l-72 -444h625q42 0 36 -41l-14 -86q-6 -35 -43 -35h-770q-43 0 -37 41zM670 1505q-6 12 6 29l196 250q17 20 43 20h109q23 0 28.5 -13 t-8.5 -30l-215 -250q-18 -18 -41 -18h-92q-20 0 -26 12z" />
<glyph unicode="&#xca;" horiz-adv-x="1101" d="M94 41l203 1284q6 35 43 35h772q41 0 35 -41l-12 -84q-3 -37 -41 -37h-631l-70 -430h535q43 0 37 -41l-15 -86q-6 -35 -43 -35h-538l-72 -444h625q42 0 36 -41l-14 -86q-6 -35 -43 -35h-770q-43 0 -37 41zM488.5 1505q-5.5 12 7.5 29l213 250q17 20 43 20h92q29 0 41 -24 l131 -248q8 -17 1.5 -28t-24.5 -11h-75q-26 0 -39 23l-91 170l-149 -175q-18 -18 -41 -18h-84q-20 0 -25.5 12z" />
<glyph unicode="&#xcb;" horiz-adv-x="1101" d="M94 41l203 1284q6 35 43 35h772q41 0 35 -41l-12 -84q-3 -37 -41 -37h-631l-70 -430h535q43 0 37 -41l-15 -86q-6 -35 -43 -35h-538l-72 -444h625q42 0 36 -41l-14 -86q-6 -35 -43 -35h-770q-43 0 -37 41zM502 1634q0 48 30.5 79.5t77.5 31.5q41 0 68 -26.5t27 -67.5 q0 -47 -32 -78t-77 -31q-43 0 -68.5 25.5t-25.5 66.5zM844 1636q0 47 30.5 78t75.5 31q43 0 70 -26.5t27 -67.5q0 -47 -31 -78t-78 -31q-41 0 -67.5 26.5t-26.5 67.5z" />
<glyph unicode="&#xcc;" horiz-adv-x="509" d="M94 41l203 1284q6 35 43 35h104q43 0 37 -41l-202 -1284q-6 -35 -43 -35h-105q-43 0 -37 41zM217 1763q-21 41 25 41h98q29 0 41 -26l113 -246q17 -39 -25 -39h-80q-26 0 -39 23z" />
<glyph unicode="&#xcd;" horiz-adv-x="509" d="M94 41l203 1284q6 35 43 35h104q43 0 37 -41l-202 -1284q-6 -35 -43 -35h-105q-43 0 -37 41zM334 1505q-6 12 6 29l197 250q17 20 43 20h108q23 0 29 -13t-8 -30l-215 -250q-18 -18 -41 -18h-93q-20 0 -26 12z" />
<glyph unicode="&#xce;" horiz-adv-x="509" d="M94 41l203 1284q6 35 43 35h104q43 0 37 -41l-202 -1284q-6 -35 -43 -35h-105q-43 0 -37 41zM152.5 1505q-5.5 12 7.5 29l213 250q17 20 43 20h92q29 0 41 -24l131 -248q8 -17 1.5 -28t-24.5 -11h-75q-26 0 -39 23l-90 170l-150 -175q-18 -18 -41 -18h-84q-20 0 -25.5 12 z" />
<glyph unicode="&#xcf;" horiz-adv-x="509" d="M94 41l203 1284q6 35 43 35h104q43 0 37 -41l-202 -1284q-6 -35 -43 -35h-105q-43 0 -37 41zM166 1634q0 48 30.5 79.5t77.5 31.5q41 0 68 -26.5t27 -67.5q0 -47 -32 -78t-77 -31q-43 0 -68.5 25.5t-25.5 66.5zM508 1636q0 47 30.5 78t75.5 31q43 0 70 -26.5t27 -67.5 q0 -47 -31 -78t-78 -31q-41 0 -67.5 26.5t-26.5 67.5z" />
<glyph unicode="&#xd0;" horiz-adv-x="1232" d="M76 649l12 86q6 35 43 35h100l88 555q6 35 43 35h400q432 0 432 -363q0 -38 -10 -110l-68 -424q-37 -234 -172 -348.5t-379 -114.5h-411q-43 0 -37 41l90 567h-94q-43 0 -37 41zM319 162h252q159 0 247.5 81t117.5 249l61 378q9 46 9 95q0 233 -267 233h-254l-67 -428 h235q43 0 37 -41l-14 -86q-6 -35 -43 -35h-242z" />
<glyph unicode="&#xd1;" horiz-adv-x="1275" d="M94 41l203 1284q6 35 43 35h131q33 0 45 -31l389 -1007h4l158 1003q6 35 43 35h100q43 0 37 -41l-203 -1284q-6 -35 -43 -35h-114q-33 0 -45 31l-402 1034h-4l-162 -1030q-6 -35 -43 -35h-100q-43 0 -37 41zM512 1550q56 209 207 209q66 0 135 -63q51 -45 80 -45 q59 0 86 84q9 26 35 26h51q36 0 27 -37q-58 -208 -207 -208q-69 0 -138 63q-51 45 -79 45q-59 0 -86 -84q-9 -27 -35 -27h-49q-36 0 -27 37z" />
<glyph unicode="&#xd2;" horiz-adv-x="1204" d="M100 367q0 57 9 106l67 426q76 485 541 485q211 0 326.5 -100.5t115.5 -286.5q0 -38 -10 -110l-68 -426q-77 -486 -540 -486q-213 0 -327 101.5t-114 290.5zM287 387q0 -250 262 -250q153 0 238 84.5t114 265.5l62 387q8 44 8 103q0 246 -260 246q-153 0 -240.5 -87 t-116.5 -268l-59 -383q-8 -41 -8 -98zM559 1763q-21 41 25 41h98q29 0 41 -26l113 -246q17 -39 -25 -39h-80q-26 0 -39 23z" />
<glyph unicode="&#xd3;" horiz-adv-x="1204" d="M100 367q0 57 9 106l67 426q76 485 541 485q211 0 326.5 -100.5t115.5 -286.5q0 -38 -10 -110l-68 -426q-77 -486 -540 -486q-213 0 -327 101.5t-114 290.5zM287 387q0 -250 262 -250q153 0 238 84.5t114 265.5l62 387q8 44 8 103q0 246 -260 246q-153 0 -240.5 -87 t-116.5 -268l-59 -383q-8 -41 -8 -98zM676 1505q-6 12 6 29l197 250q17 20 43 20h108q23 0 29 -13t-8 -30l-215 -250q-18 -18 -41 -18h-93q-20 0 -26 12z" />
<glyph unicode="&#xd4;" horiz-adv-x="1204" d="M100 367q0 57 9 106l67 426q76 485 541 485q211 0 326.5 -100.5t115.5 -286.5q0 -38 -10 -110l-68 -426q-77 -486 -540 -486q-213 0 -327 101.5t-114 290.5zM287 387q0 -250 262 -250q153 0 238 84.5t114 265.5l62 387q8 44 8 103q0 246 -260 246q-153 0 -240.5 -87 t-116.5 -268l-59 -383q-8 -41 -8 -98zM494.5 1505q-5.5 12 7.5 29l213 250q17 20 43 20h92q29 0 41 -24l131 -248q8 -17 1.5 -28t-24.5 -11h-75q-26 0 -39 23l-90 170l-150 -175q-18 -18 -41 -18h-84q-20 0 -25.5 12z" />
<glyph unicode="&#xd5;" horiz-adv-x="1204" d="M100 367q0 57 9 106l67 426q76 485 541 485q211 0 326.5 -100.5t115.5 -286.5q0 -38 -10 -110l-68 -426q-77 -486 -540 -486q-213 0 -327 101.5t-114 290.5zM287 387q0 -250 262 -250q153 0 238 84.5t114 265.5l62 387q8 44 8 103q0 246 -260 246q-153 0 -240.5 -87 t-116.5 -268l-59 -383q-8 -41 -8 -98zM469 1550q56 209 207 209q66 0 135 -63q51 -45 80 -45q59 0 86 84q9 26 35 26h51q36 0 27 -37q-58 -208 -207 -208q-69 0 -138 63q-51 45 -79 45q-59 0 -86 -84q-9 -27 -35 -27h-49q-36 0 -27 37z" />
<glyph unicode="&#xd6;" horiz-adv-x="1204" d="M100 367q0 57 9 106l67 426q76 485 541 485q211 0 326.5 -100.5t115.5 -286.5q0 -38 -10 -110l-68 -426q-77 -486 -540 -486q-213 0 -327 101.5t-114 290.5zM287 387q0 -250 262 -250q153 0 238 84.5t114 265.5l62 387q8 44 8 103q0 246 -260 246q-153 0 -240.5 -87 t-116.5 -268l-59 -383q-8 -41 -8 -98zM508 1634q0 48 30.5 79.5t77.5 31.5q41 0 68 -26.5t27 -67.5q0 -47 -32 -78t-77 -31q-43 0 -68.5 25.5t-25.5 66.5zM850 1636q0 47 30.5 78t75.5 31q43 0 70 -26.5t27 -67.5q0 -47 -31 -78t-78 -31q-41 0 -67.5 26.5t-26.5 67.5z" />
<glyph unicode="&#xd7;" d="M72 178q-24 27 4 55l395 342l-285 338q-25 28 4 54l66 55q31 25 53 -4l285 -336l395 342q30 27 55 -4l48 -55q26 -32 -2 -54l-398 -344l285 -338q25 -28 -4 -53l-64 -55q-28 -28 -53 4l-287 336l-393 -342q-27 -24 -55 4z" />
<glyph unicode="&#xd8;" horiz-adv-x="1204" d="M74 90l80 98q-33 79 -33 179q0 62 8 106l68 426q76 485 540 485q206 0 322 -96l59 74q25 29 53 4l50 -43q25 -25 4 -53l-80 -96q35 -81 35 -177q0 -31 -11 -110l-67 -426q-76 -486 -541 -486q-202 0 -319 97l-62 -74q-25 -29 -53 -4l-49 43q-25 25 -4 53zM307 379h4 l631 768q-64 76 -211 76q-153 0 -240 -87t-116 -268l-60 -383q-8 -41 -8 -98v-8zM358 215q66 -78 211 -78q153 0 238.5 85t114.5 265l61 387q8 44 8 103v4h-4z" />
<glyph unicode="&#xd9;" horiz-adv-x="1204" d="M123 350q0 63 8 107l137 868q6 35 43 35h105q43 0 37 -41l-136 -852q-8 -41 -8 -94q0 -236 242 -236q142 0 222 81t106 253l135 854q6 35 43 35h98q43 0 37 -41l-137 -875q-73 -469 -514 -469q-201 0 -309.5 97.5t-108.5 277.5zM561 1763q-21 41 25 41h98q29 0 41 -26 l113 -246q17 -39 -25 -39h-80q-29 0 -39 23z" />
<glyph unicode="&#xda;" horiz-adv-x="1204" d="M123 350q0 63 8 107l137 868q6 35 43 35h105q43 0 37 -41l-136 -852q-8 -41 -8 -94q0 -236 242 -236q142 0 222 81t106 253l135 854q6 35 43 35h98q43 0 37 -41l-137 -875q-73 -469 -514 -469q-201 0 -309.5 97.5t-108.5 277.5zM678.5 1505q-6.5 12 5.5 29l197 250 q17 20 43 20h108q23 0 29 -13t-8 -30l-215 -250q-18 -18 -41 -18h-92q-20 0 -26.5 12z" />
<glyph unicode="&#xdb;" horiz-adv-x="1204" d="M123 350q0 63 8 107l137 868q6 35 43 35h105q43 0 37 -41l-136 -852q-8 -41 -8 -94q0 -236 242 -236q142 0 222 81t106 253l135 854q6 35 43 35h98q43 0 37 -41l-137 -875q-73 -469 -514 -469q-201 0 -309.5 97.5t-108.5 277.5zM496.5 1505q-5.5 12 7.5 29l213 250 q17 20 43 20h92q29 0 41 -24l131 -248q8 -17 1.5 -28t-24.5 -11h-75q-26 0 -39 23l-90 170l-150 -175q-18 -18 -41 -18h-84q-20 0 -25.5 12z" />
<glyph unicode="&#xdc;" horiz-adv-x="1204" d="M123 350q0 63 8 107l137 868q6 35 43 35h105q43 0 37 -41l-136 -852q-8 -41 -8 -94q0 -236 242 -236q142 0 222 81t106 253l135 854q6 35 43 35h98q43 0 37 -41l-137 -875q-73 -469 -514 -469q-201 0 -309.5 97.5t-108.5 277.5zM510 1634q0 48 30.5 79.5t77.5 31.5 q41 0 68 -26.5t27 -67.5q0 -47 -32 -78t-77 -31q-43 0 -68.5 25.5t-25.5 66.5zM852 1636q0 47 30.5 78t75.5 31q43 0 70 -26.5t27 -67.5q0 -47 -31 -78t-78 -31q-41 0 -67.5 26.5t-26.5 67.5z" />
<glyph unicode="&#xdd;" horiz-adv-x="1085" d="M162 1315q-17 45 28 45h121q33 0 45 -31l232 -559l405 565q19 25 49 25h127q25 0 32 -13.5t-7 -33.5l-541 -719l-88 -559q-6 -35 -43 -35h-104q-43 0 -37 41l88 563zM623 1505q-6 12 6 29l196 250q17 20 43 20h109q23 0 28.5 -13t-8.5 -30l-215 -250q-18 -18 -41 -18h-92 q-20 0 -26 12z" />
<glyph unicode="&#xde;" horiz-adv-x="1118" d="M94 41l203 1284q6 35 43 35h104q43 0 37 -41l-32 -201h229q426 0 426 -358q0 -246 -133 -361.5t-416 -115.5h-238l-38 -248q-6 -35 -43 -35h-105q-43 0 -37 41zM342 444h231q177 0 261 74.5t84 229.5q0 208 -261 208h-233z" />
<glyph unicode="&#xdf;" horiz-adv-x="1130" d="M70 41l168 1059q26 170 142.5 264t301.5 94q166 0 261 -79t95 -216q0 -104 -47 -174.5t-160 -136.5q-77 -44 -107 -80t-30 -84q0 -38 27 -60.5t102 -45.5q121 -35 171 -94.5t50 -165.5q0 -162 -103.5 -254.5t-285.5 -92.5q-194 0 -303 86q-28 28 -6 56l43 59q21 27 55 4 q69 -57 207 -57q103 0 163 48t60 130q0 55 -34 88.5t-119 59.5q-109 35 -154 86t-45 141q0 94 44.5 158.5t154.5 130.5q86 51 117.5 91t31.5 97q0 75 -52 116.5t-146 41.5q-110 0 -178.5 -56.5t-85.5 -162.5l-168 -1057q-6 -35 -43 -35h-91q-42 0 -36 41z" />
<glyph unicode="&#xe0;" horiz-adv-x="933" d="M41 260q0 164 105 252t303 88h229l4 25q6 44 6 77q0 189 -201 189q-114 0 -208 -76q-37 -29 -58 8l-35 58q-18 30 13 55q138 102 311 102q171 0 261.5 -80t90.5 -233q0 -49 -8 -90l-45 -279q-59 -381 -434 -381q-159 0 -246.5 75t-87.5 210zM211 266q0 -143 176 -143 q110 0 171.5 62t84.5 196l12 78h-200q-117 0 -180.5 -50t-63.5 -143zM381 1430q-21 40 25 40h98q29 0 41 -26l112 -246q17 -39 -24 -39h-80q-29 0 -39 23z" />
<glyph unicode="&#xe1;" horiz-adv-x="933" d="M41 260q0 164 105 252t303 88h229l4 25q6 44 6 77q0 189 -201 189q-114 0 -208 -76q-37 -29 -58 8l-35 58q-18 30 13 55q138 102 311 102q171 0 261.5 -80t90.5 -233q0 -49 -8 -90l-45 -279q-59 -381 -434 -381q-159 0 -246.5 75t-87.5 210zM211 266q0 -143 176 -143 q110 0 171.5 62t84.5 196l12 78h-200q-117 0 -180.5 -50t-63.5 -143zM498 1171q-6 12 6 29l196 250q17 20 43 20h109q23 0 28.5 -13t-8.5 -30l-215 -249q-19 -19 -41 -19h-92q-20 0 -26 12z" />
<glyph unicode="&#xe2;" horiz-adv-x="933" d="M41 260q0 164 105 252t303 88h229l4 25q6 44 6 77q0 189 -201 189q-114 0 -208 -76q-37 -29 -58 8l-35 58q-18 30 13 55q138 102 311 102q171 0 261.5 -80t90.5 -233q0 -49 -8 -90l-45 -279q-59 -381 -434 -381q-159 0 -246.5 75t-87.5 210zM211 266q0 -143 176 -143 q110 0 171.5 62t84.5 196l12 78h-200q-117 0 -180.5 -50t-63.5 -143zM316.5 1171q-5.5 12 7.5 29l213 250q17 20 43 20h92q29 0 41 -24l131 -248q8 -17 1.5 -28t-24.5 -11h-76q-25 0 -38 23l-91 170l-149 -174q-19 -19 -41 -19h-84q-20 0 -25.5 12z" />
<glyph unicode="&#xe3;" horiz-adv-x="933" d="M41 260q0 164 105 252t303 88h229l4 25q6 44 6 77q0 189 -201 189q-114 0 -208 -76q-37 -29 -58 8l-35 58q-18 30 13 55q138 102 311 102q171 0 261.5 -80t90.5 -233q0 -49 -8 -90l-45 -279q-59 -381 -434 -381q-159 0 -246.5 75t-87.5 210zM211 266q0 -143 176 -143 q110 0 171.5 62t84.5 196l12 78h-200q-117 0 -180.5 -50t-63.5 -143zM291 1217q55 208 207 208q66 0 135 -63q51 -45 80 -45q59 0 86 84q9 26 35 26h51q35 0 26 -36q-59 -209 -206 -209q-69 0 -138 63q-51 45 -80 45q-59 0 -86 -84q-9 -26 -34 -26h-50q-35 0 -26 37z" />
<glyph unicode="&#xe4;" horiz-adv-x="933" d="M41 260q0 164 105 252t303 88h229l4 25q6 44 6 77q0 189 -201 189q-114 0 -208 -76q-37 -29 -58 8l-35 58q-18 30 13 55q138 102 311 102q171 0 261.5 -80t90.5 -233q0 -49 -8 -90l-45 -279q-59 -381 -434 -381q-159 0 -246.5 75t-87.5 210zM211 266q0 -143 176 -143 q110 0 171.5 62t84.5 196l12 78h-200q-117 0 -180.5 -50t-63.5 -143zM330 1300q0 48 30.5 79.5t77.5 31.5q41 0 67.5 -26.5t26.5 -67.5q0 -47 -31.5 -78t-76.5 -31q-43 0 -68.5 25.5t-25.5 66.5zM672 1303q0 47 30.5 77.5t75.5 30.5q43 0 69.5 -26.5t26.5 -67.5 q0 -47 -30.5 -78t-77.5 -31q-41 0 -67.5 27t-26.5 68z" />
<glyph unicode="&#xe5;" horiz-adv-x="933" d="M41 260q0 164 105 252t303 88h229l4 25q6 44 6 77q0 189 -201 189q-114 0 -208 -76q-37 -29 -58 8l-35 58q-18 30 13 55q138 102 311 102q171 0 261.5 -80t90.5 -233q0 -49 -8 -90l-45 -279q-59 -381 -434 -381q-159 0 -246.5 75t-87.5 210zM211 266q0 -143 176 -143 q110 0 171.5 62t84.5 196l12 78h-200q-117 0 -180.5 -50t-63.5 -143zM432 1298q0 77 54 131t130 54q68 0 112 -43t44 -109q0 -77 -53 -130.5t-129 -53.5q-69 0 -113.5 42.5t-44.5 108.5zM524 1305q0 -68 70 -68q37 0 61.5 25t24.5 63q0 31 -19.5 49.5t-50.5 18.5 q-37 0 -61.5 -25t-24.5 -63z" />
<glyph unicode="&#xe6;" horiz-adv-x="1503" d="M41 258q0 164 103.5 251t301.5 87h232l4 29q6 44 6 80q0 97 -48 141.5t-151 44.5q-116 0 -217 -78q-32 -25 -53 10l-35 58q-18 30 11 53q137 104 307 104q236 0 295 -170h4q102 170 332 170q152 0 234.5 -79t82.5 -222q0 -35 -8 -90l-25 -158q-6 -34 -43 -34h-551 l-10 -66q-6 -43 -6 -78q0 -98 53 -143t164 -45q109 0 213 88q32 29 53 -6l37 -55q22 -31 -6 -56q-131 -119 -307 -119q-253 0 -314 172h-4q-102 -172 -344 -172q-146 0 -228.5 75t-82.5 208zM211 264q0 -141 174 -141q112 0 173.5 62t84.5 196l12 74h-204q-240 0 -240 -191z M844 596h428l6 39q8 39 8 82q0 174 -178 174q-214 0 -258 -258z" />
<glyph unicode="&#xe7;" horiz-adv-x="829" d="M72 291q0 33 8 88l43 270q61 389 428 389q169 0 272 -92q27 -28 0 -55l-49 -53q-22 -28 -53 0q-59 53 -170 53q-221 0 -262 -268l-37 -234q-6 -40 -6 -76q0 -190 200 -190q95 0 183 70q31 28 55 -7l35 -51q21 -31 -6 -55q-123 -105 -287 -105l-25 -69q129 -12 129 -115 q0 -143 -202 -143q-89 0 -154 35q-23 13 -10 41l18 40q12 27 41 11q55 -25 103 -25q84 0 84 47q0 43 -95 43q-33 0 -22 33l41 109q-128 23 -195 101t-67 208z" />
<glyph unicode="&#xe8;" horiz-adv-x="937" d="M72 287q0 53 8 92l43 278q61 381 422 381q164 0 252 -78.5t88 -226.5q0 -39 -6 -86l-25 -164q-6 -34 -43 -34h-551l-10 -60q-6 -44 -6 -76q0 -98 53 -144t164 -46q109 0 213 88q32 29 53 -6l37 -55q22 -31 -6 -56q-131 -119 -312 -119q-183 0 -278.5 79.5t-95.5 232.5z M283 590h428l6 45q6 43 6 78q0 178 -182 178q-109 0 -169 -62t-83 -196zM389 1430q-21 40 25 40h98q29 0 41 -26l113 -246q17 -39 -25 -39h-80q-29 0 -39 23z" />
<glyph unicode="&#xe9;" horiz-adv-x="937" d="M72 287q0 53 8 92l43 278q61 381 422 381q164 0 252 -78.5t88 -226.5q0 -39 -6 -86l-25 -164q-6 -34 -43 -34h-551l-10 -60q-6 -44 -6 -76q0 -98 53 -144t164 -46q109 0 213 88q32 29 53 -6l37 -55q22 -31 -6 -56q-131 -119 -312 -119q-183 0 -278.5 79.5t-95.5 232.5z M283 590h428l6 45q6 43 6 78q0 178 -182 178q-109 0 -169 -62t-83 -196zM506 1171q-6 12 6 29l197 250q17 20 43 20h108q23 0 29 -13t-8 -30l-215 -249q-19 -19 -41 -19h-93q-20 0 -26 12z" />
<glyph unicode="&#xea;" horiz-adv-x="937" d="M72 287q0 53 8 92l43 278q61 381 422 381q164 0 252 -78.5t88 -226.5q0 -39 -6 -86l-25 -164q-6 -34 -43 -34h-551l-10 -60q-6 -44 -6 -76q0 -98 53 -144t164 -46q109 0 213 88q32 29 53 -6l37 -55q22 -31 -6 -56q-131 -119 -312 -119q-183 0 -278.5 79.5t-95.5 232.5z M283 590h428l6 45q6 43 6 78q0 178 -182 178q-109 0 -169 -62t-83 -196zM324.5 1171q-5.5 12 7.5 29l213 250q17 20 43 20h92q29 0 41 -24l131 -248q8 -17 1.5 -28t-24.5 -11h-75q-26 0 -39 23l-90 170l-150 -174q-19 -19 -41 -19h-84q-20 0 -25.5 12z" />
<glyph unicode="&#xeb;" horiz-adv-x="937" d="M72 287q0 53 8 92l43 278q61 381 422 381q164 0 252 -78.5t88 -226.5q0 -39 -6 -86l-25 -164q-6 -34 -43 -34h-551l-10 -60q-6 -44 -6 -76q0 -98 53 -144t164 -46q109 0 213 88q32 29 53 -6l37 -55q22 -31 -6 -56q-131 -119 -312 -119q-183 0 -278.5 79.5t-95.5 232.5z M283 590h428l6 45q6 43 6 78q0 178 -182 178q-109 0 -169 -62t-83 -196zM338 1300q0 48 30.5 79.5t77.5 31.5q41 0 68 -26.5t27 -67.5q0 -47 -32 -78t-77 -31q-43 0 -68.5 25.5t-25.5 66.5zM680 1303q0 47 30.5 77.5t75.5 30.5q43 0 70 -26.5t27 -67.5q0 -47 -31 -78 t-78 -31q-41 0 -67.5 27t-26.5 68z" />
<glyph unicode="&#xec;" horiz-adv-x="444" d="M68 41l149 938q6 35 43 35h90q43 0 37 -41l-149 -938q-6 -35 -43 -35h-91q-42 0 -36 41zM133 1430q-21 40 25 40h98q29 0 41 -26l113 -246q17 -39 -25 -39h-80q-29 0 -39 23z" />
<glyph unicode="&#xed;" horiz-adv-x="444" d="M68 41l149 938q6 35 43 35h90q43 0 37 -41l-149 -938q-6 -35 -43 -35h-91q-42 0 -36 41zM250 1171q-6 12 6 29l197 250q17 20 43 20h108q23 0 29 -13t-8 -30l-215 -249q-19 -19 -41 -19h-93q-20 0 -26 12z" />
<glyph unicode="&#xee;" horiz-adv-x="444" d="M68 41l149 938q6 35 43 35h90q43 0 37 -41l-149 -938q-6 -35 -43 -35h-91q-42 0 -36 41zM68.5 1171q-5.5 12 7.5 29l213 250q17 20 43 20h92q29 0 41 -24l131 -248q8 -17 1.5 -28t-24.5 -11h-75q-26 0 -39 23l-90 170l-150 -174q-19 -19 -41 -19h-84q-20 0 -25.5 12z" />
<glyph unicode="&#xef;" horiz-adv-x="444" d="M68 41l149 938q6 35 43 35h90q43 0 37 -41l-149 -938q-6 -35 -43 -35h-91q-42 0 -36 41zM82 1300q0 48 30.5 79.5t77.5 31.5q41 0 68 -26.5t27 -67.5q0 -47 -32 -78t-77 -31q-43 0 -68.5 25.5t-25.5 66.5zM424 1303q0 47 30.5 77.5t75.5 30.5q43 0 70 -26.5t27 -67.5 q0 -47 -31 -78t-78 -31q-41 0 -67.5 27t-26.5 68z" />
<glyph unicode="&#xf0;" horiz-adv-x="989" d="M72 283q0 39 6 86l43 270q62 379 401 379q149 0 219 -98h4q-6 176 -90 266l-139 -96q-30 -21 -49 8l-35 51q-18 27 10 49l93 66v4q-85 26 -164 39q-42 3 -33 47l18 73q9 35 45 29q173 -21 287 -88l103 72q28 22 49 -8l34 -52q18 -27 -10 -49l-69 -49q120 -135 120 -393 q0 -120 -20 -240l-47 -293q-62 -381 -428 -381q-167 0 -257.5 80t-90.5 228zM244 301q0 -178 184 -178q110 0 171 62t81 196l37 233q6 40 6 72q0 184 -182 184q-110 0 -170.5 -62t-83.5 -196l-37 -233q-6 -43 -6 -78z" />
<glyph unicode="&#xf1;" horiz-adv-x="1011" d="M59 41l99 625q58 372 420 372q165 0 253.5 -77.5t88.5 -223.5q0 -33 -7 -84l-98 -618q-6 -35 -43 -35h-90q-43 0 -37 41l96 600q7 47 7 76q0 174 -179 174q-106 0 -165.5 -61.5t-79.5 -190.5l-95 -604q-6 -35 -43 -35h-90q-43 0 -37 41zM328 1217q55 208 207 208 q66 0 135 -63q51 -45 80 -45q59 0 86 84q9 26 34 26h52q35 0 26 -36q-59 -209 -207 -209q-68 0 -137 63q-51 45 -80 45q-59 0 -86 -84q-9 -26 -35 -26h-49q-35 0 -26 37z" />
<glyph unicode="&#xf2;" horiz-adv-x="972" d="M70 283q0 41 6 84l47 290q61 381 428 381q167 0 257.5 -79.5t90.5 -227.5q0 -37 -6 -84l-45 -293q-59 -379 -428 -379q-167 0 -258.5 80t-91.5 228zM244 301q0 -178 184 -178q110 0 171 62t81 196l41 254q6 43 6 78q0 178 -184 178q-108 0 -168.5 -62t-83.5 -196 l-41 -254q-6 -43 -6 -78zM391 1430q-21 40 25 40h98q29 0 41 -26l113 -246q17 -39 -25 -39h-80q-26 0 -39 23z" />
<glyph unicode="&#xf3;" horiz-adv-x="972" d="M70 283q0 41 6 84l47 290q61 381 428 381q167 0 257.5 -79.5t90.5 -227.5q0 -37 -6 -84l-45 -293q-59 -379 -428 -379q-167 0 -258.5 80t-91.5 228zM244 301q0 -178 184 -178q110 0 171 62t81 196l41 254q6 43 6 78q0 178 -184 178q-108 0 -168.5 -62t-83.5 -196 l-41 -254q-6 -43 -6 -78zM508.5 1171q-6.5 12 5.5 29l197 250q17 20 43 20h108q23 0 29 -13t-8 -30l-215 -249q-19 -19 -41 -19h-92q-20 0 -26.5 12z" />
<glyph unicode="&#xf4;" horiz-adv-x="972" d="M70 283q0 41 6 84l47 290q61 381 428 381q167 0 257.5 -79.5t90.5 -227.5q0 -37 -6 -84l-45 -293q-59 -379 -428 -379q-167 0 -258.5 80t-91.5 228zM244 301q0 -178 184 -178q110 0 171 62t81 196l41 254q6 43 6 78q0 178 -184 178q-108 0 -168.5 -62t-83.5 -196 l-41 -254q-6 -43 -6 -78zM326.5 1171q-5.5 12 7.5 29l213 250q17 20 43 20h92q29 0 41 -24l131 -248q8 -17 1.5 -28t-24.5 -11h-75q-26 0 -39 23l-90 170l-150 -174q-19 -19 -41 -19h-84q-20 0 -25.5 12z" />
<glyph unicode="&#xf5;" horiz-adv-x="972" d="M70 283q0 41 6 84l47 290q61 381 428 381q167 0 257.5 -79.5t90.5 -227.5q0 -37 -6 -84l-45 -293q-59 -379 -428 -379q-167 0 -258.5 80t-91.5 228zM244 301q0 -178 184 -178q110 0 171 62t81 196l41 254q6 43 6 78q0 178 -184 178q-108 0 -168.5 -62t-83.5 -196 l-41 -254q-6 -43 -6 -78zM301 1217q55 208 207 208q66 0 135 -63q51 -45 80 -45q59 0 86 84q9 26 35 26h51q36 0 27 -36q-59 -209 -207 -209q-68 0 -137 63q-51 45 -80 45q-59 0 -86 -84q-9 -26 -35 -26h-49q-36 0 -27 37z" />
<glyph unicode="&#xf6;" horiz-adv-x="972" d="M70 283q0 41 6 84l47 290q61 381 428 381q167 0 257.5 -79.5t90.5 -227.5q0 -37 -6 -84l-45 -293q-59 -379 -428 -379q-167 0 -258.5 80t-91.5 228zM244 301q0 -178 184 -178q110 0 171 62t81 196l41 254q6 43 6 78q0 178 -184 178q-108 0 -168.5 -62t-83.5 -196 l-41 -254q-6 -43 -6 -78zM340 1300q0 47 31 79t78 32q41 0 67.5 -26.5t26.5 -67.5q0 -47 -32 -78t-77 -31q-43 0 -68.5 25.5t-25.5 66.5zM682 1303q0 47 30.5 77.5t75.5 30.5q43 0 70 -26.5t27 -67.5q0 -47 -31 -78t-78 -31q-41 0 -67.5 27t-26.5 68z" />
<glyph unicode="&#xf7;" d="M53 532l13 82q6 35 43 35h915q43 0 37 -41l-12 -82q-6 -34 -43 -34h-916q-43 0 -37 40zM383 154q0 51 34.5 85.5t84.5 34.5q44 0 73 -28.5t29 -71.5q0 -51 -34.5 -86t-84.5 -35q-46 0 -74 28.5t-28 72.5zM512 969q0 51 34.5 86t84.5 35q44 0 73 -29t29 -72 q0 -51 -34.5 -86t-84.5 -35q-46 0 -74 28.5t-28 72.5z" />
<glyph unicode="&#xf8;" horiz-adv-x="972" d="M61 90l54 64q-23 64 -23 129q0 41 6 84l47 290q62 381 428 381q151 0 240 -65l39 45q24 27 49 2l51 -47q24 -21 2 -49l-55 -64q23 -67 23 -129q0 -30 -7 -84l-45 -293q-59 -379 -428 -379q-148 0 -239 66l-39 -45q-24 -27 -49 -2l-52 47q-24 21 -2 49zM266 336h4l435 510 q-45 45 -140 45q-108 0 -168.5 -62t-83.5 -196l-41 -254q-6 -37 -6 -43zM311 168q45 -45 140 -45q109 0 168.5 61.5t82.5 196.5l41 254q7 35 7 43h-5z" />
<glyph unicode="&#xf9;" horiz-adv-x="999" d="M96 270q0 40 6 84l99 625q6 35 43 35h90q43 0 37 -41l-97 -608q-6 -41 -6 -70q0 -172 176 -172q104 0 162 58t78 181l96 617q6 35 43 35h86q43 0 37 -41l-100 -631q-59 -367 -412 -367q-164 0 -251 76t-87 219zM406 1430q-21 40 24 40h98q29 0 41 -26l113 -246 q17 -39 -25 -39h-79q-29 0 -39 23z" />
<glyph unicode="&#xfa;" horiz-adv-x="999" d="M96 270q0 40 6 84l99 625q6 35 43 35h90q43 0 37 -41l-97 -608q-6 -41 -6 -70q0 -172 176 -172q104 0 162 58t78 181l96 617q6 35 43 35h86q43 0 37 -41l-100 -631q-59 -367 -412 -367q-164 0 -251 76t-87 219zM522.5 1171q-6.5 12 5.5 29l197 250q17 20 43 20h109 q23 0 28.5 -13t-8.5 -30l-215 -249q-19 -19 -41 -19h-92q-20 0 -26.5 12z" />
<glyph unicode="&#xfb;" horiz-adv-x="999" d="M96 270q0 40 6 84l99 625q6 35 43 35h90q43 0 37 -41l-97 -608q-6 -41 -6 -70q0 -172 176 -172q104 0 162 58t78 181l96 617q6 35 43 35h86q43 0 37 -41l-100 -631q-59 -367 -412 -367q-164 0 -251 76t-87 219zM340.5 1171q-5.5 12 7.5 29l213 250q17 20 43 20h92 q29 0 41 -24l131 -248q8 -17 2 -28t-24 -11h-76q-26 0 -39 23l-90 170l-149 -174q-19 -19 -41 -19h-84q-21 0 -26.5 12z" />
<glyph unicode="&#xfc;" horiz-adv-x="999" d="M96 270q0 40 6 84l99 625q6 35 43 35h90q43 0 37 -41l-97 -608q-6 -41 -6 -70q0 -172 176 -172q104 0 162 58t78 181l96 617q6 35 43 35h86q43 0 37 -41l-100 -631q-59 -367 -412 -367q-164 0 -251 76t-87 219zM354 1300q0 47 31 79t78 32q41 0 67.5 -26.5t26.5 -67.5 q0 -47 -31.5 -78t-76.5 -31q-43 0 -69 25.5t-26 66.5zM696 1303q0 47 31 77.5t76 30.5q43 0 69.5 -26.5t26.5 -67.5q0 -47 -30.5 -78t-77.5 -31q-41 0 -68 27t-27 68z" />
<glyph unicode="&#xfd;" horiz-adv-x="1021" d="M72 -182l45 57q25 31 55 4q90 -84 231 -84q222 0 256 230l13 75h-4q-89 -92 -240 -92q-148 0 -226.5 75t-78.5 216q0 55 8 94l92 586q6 35 43 35h90q43 0 37 -41l-90 -570q-6 -41 -6 -73q0 -174 178 -174q205 0 246 250l90 573q6 35 43 35h90q43 0 37 -41l-156 -969 q-26 -171 -135.5 -263.5t-286.5 -92.5q-209 0 -329 114q-24 24 -2 56zM551.5 1171q-6.5 12 5.5 29l197 250q17 20 43 20h108q23 0 29 -13t-8 -30l-215 -249q-19 -19 -41 -19h-92q-20 0 -26.5 12z" />
<glyph unicode="&#xfe;" horiz-adv-x="1009" d="M14 -287l269 1686q6 35 43 35h90q43 0 37 -41l-72 -449h4q88 94 242 94q153 0 235 -77t82 -220q0 -55 -8 -94l-45 -291q-61 -381 -406 -381q-173 0 -235 117h-4l-62 -385q-6 -35 -43 -35h-90q-43 0 -37 41zM287 307q0 -184 186 -184q108 0 168 63t84 195l41 254 q6 43 6 76q0 180 -186 180q-214 0 -254 -258l-39 -254q-6 -41 -6 -72z" />
<glyph unicode="&#xff;" horiz-adv-x="1021" d="M72 -182l45 57q25 31 55 4q90 -84 231 -84q222 0 256 230l13 75h-4q-89 -92 -240 -92q-148 0 -226.5 75t-78.5 216q0 55 8 94l92 586q6 35 43 35h90q43 0 37 -41l-90 -570q-6 -41 -6 -73q0 -174 178 -174q205 0 246 250l90 573q6 35 43 35h90q43 0 37 -41l-156 -969 q-26 -171 -135.5 -263.5t-286.5 -92.5q-209 0 -329 114q-24 24 -2 56zM383 1300q0 47 31 79t78 32q41 0 67.5 -26.5t26.5 -67.5q0 -47 -32 -78t-77 -31q-43 0 -68.5 25.5t-25.5 66.5zM725 1303q0 47 30.5 77.5t75.5 30.5q43 0 70 -26.5t27 -67.5q0 -47 -31 -78t-78 -31 q-41 0 -67.5 27t-26.5 68z" />
<glyph unicode="&#x152;" horiz-adv-x="1806" d="M98 367q0 31 11 110l67 424q37 234 172 346.5t379 112.5h1081q43 0 37 -41l-12 -86q-6 -35 -43 -35h-633l-70 -430h537q43 0 37 -41l-12 -86q-6 -35 -43 -35h-543l-72 -444h627q43 0 37 -41l-13 -86q-6 -35 -43 -35h-1069q-211 0 -321.5 93.5t-110.5 273.5zM287 397 q0 -235 266 -235h254l166 1036h-252q-314 0 -367 -330l-59 -379q-8 -39 -8 -92z" />
<glyph unicode="&#x153;" horiz-adv-x="1542" d="M70 281q0 39 6 86l47 290q61 381 414 381q241 0 299 -168h4q98 168 327 168q152 0 237 -81t85 -224q0 -39 -6 -86l-27 -164q-6 -34 -43 -34h-551l-10 -60q-6 -43 -6 -78q0 -99 52 -143.5t165 -44.5q109 0 209 86q31 28 55 -6l39 -56q22 -28 -6 -53q-131 -119 -301 -119 q-254 0 -318 175h-4q-99 -175 -331 -175q-161 0 -248.5 79t-87.5 227zM244 301q0 -178 184 -178q109 0 169 62t83 196l41 254q6 43 6 78q0 178 -184 178q-108 0 -168.5 -62t-83.5 -196l-41 -254q-6 -43 -6 -78zM885 590h428l6 45q6 43 6 78q0 178 -182 178 q-108 0 -168.5 -62t-83.5 -196z" />
<glyph unicode="&#x178;" horiz-adv-x="1085" d="M162 1315q-17 45 28 45h121q33 0 45 -31l232 -559l405 565q19 25 49 25h127q25 0 32 -13.5t-7 -33.5l-541 -719l-88 -559q-6 -35 -43 -35h-104q-43 0 -37 41l88 563zM455 1634q0 48 30.5 79.5t77.5 31.5q41 0 67.5 -26.5t26.5 -67.5q0 -47 -31.5 -78t-76.5 -31 q-43 0 -68.5 25.5t-25.5 66.5zM797 1636q0 47 30.5 78t75.5 31q43 0 69.5 -26.5t26.5 -67.5q0 -47 -30.5 -78t-77.5 -31q-41 0 -67.5 26.5t-26.5 67.5z" />
<glyph unicode="&#x2c6;" horiz-adv-x="1024" d="M361.5 1171q-5.5 12 7.5 29l213 250q17 20 43 20h92q29 0 41 -24l131 -248q8 -17 1.5 -28t-24.5 -11h-75q-26 0 -39 23l-90 170l-150 -174q-19 -19 -41 -19h-84q-20 0 -25.5 12z" />
<glyph unicode="&#x2dc;" horiz-adv-x="1024" d="M338 1217q55 208 207 208q66 0 135 -63q51 -45 80 -45q59 0 86 84q9 26 35 26h51q35 0 26 -36q-59 -209 -206 -209q-69 0 -138 63q-51 45 -79 45q-59 0 -86 -84q-9 -26 -35 -26h-49q-36 0 -27 37z" />
<glyph unicode="&#x2000;" horiz-adv-x="908" />
<glyph unicode="&#x2001;" horiz-adv-x="1817" />
<glyph unicode="&#x2002;" horiz-adv-x="908" />
<glyph unicode="&#x2003;" horiz-adv-x="1817" />
<glyph unicode="&#x2004;" horiz-adv-x="605" />
<glyph unicode="&#x2005;" horiz-adv-x="454" />
<glyph unicode="&#x2006;" horiz-adv-x="302" />
<glyph unicode="&#x2007;" horiz-adv-x="302" />
<glyph unicode="&#x2008;" horiz-adv-x="227" />
<glyph unicode="&#x2009;" horiz-adv-x="363" />
<glyph unicode="&#x200a;" horiz-adv-x="100" />
<glyph unicode="&#x2010;" horiz-adv-x="679" d="M70 518l12 86q6 35 43 35h477q43 0 37 -41l-12 -86q-6 -35 -43 -35h-478q-42 0 -36 41z" />
<glyph unicode="&#x2011;" horiz-adv-x="679" d="M70 518l12 86q6 35 43 35h477q43 0 37 -41l-12 -86q-6 -35 -43 -35h-478q-42 0 -36 41z" />
<glyph unicode="&#x2012;" horiz-adv-x="679" d="M70 518l12 86q6 35 43 35h477q43 0 37 -41l-12 -86q-6 -35 -43 -35h-478q-42 0 -36 41z" />
<glyph unicode="&#x2013;" horiz-adv-x="1024" d="M72 526l10 68q3 33 37 33h831q37 0 31 -37l-10 -68q-3 -33 -37 -33h-832q-36 0 -30 37z" />
<glyph unicode="&#x2014;" horiz-adv-x="1843" d="M72 526l10 68q3 33 37 33h1650q37 0 31 -37l-10 -68q-3 -33 -37 -33h-1651q-36 0 -30 37z" />
<glyph unicode="&#x2018;" horiz-adv-x="477" d="M213 1051q0 84 53 171.5t144 155.5q21 15 36 -6l27 -35q16 -23 -4 -37q-80 -66 -102 -151q69 -21 69 -90q0 -55 -33 -87t-88 -32q-47 0 -74.5 30t-27.5 81z" />
<glyph unicode="&#x2019;" horiz-adv-x="477" d="M227 987q-16 23 4 37q81 66 103 152q-70 21 -70 90q0 55 33 86.5t88 31.5q47 0 74.5 -29.5t27.5 -80.5q0 -85 -52.5 -172.5t-143.5 -155.5q-22 -15 -37 6z" />
<glyph unicode="&#x201a;" horiz-adv-x="477" d="M39 -195q-16 23 4 37q80 65 102 152q-69 21 -69 90q0 55 33 87t88 32q47 0 74.5 -30t27.5 -81q0 -84 -53 -172t-144 -156q-21 -15 -36 7z" />
<glyph unicode="&#x201c;" horiz-adv-x="839" d="M213 1051q0 84 53 171.5t144 155.5q21 15 36 -6l27 -35q16 -23 -4 -37q-80 -66 -102 -151q69 -21 69 -90q0 -55 -33 -87t-88 -32q-47 0 -74.5 30t-27.5 81zM575 1051q0 84 53 171.5t144 155.5q22 15 37 -6l27 -35q16 -22 -5 -37q-80 -66 -102 -151q70 -21 70 -90 q0 -55 -33 -87t-88 -32q-47 0 -75 30t-28 81z" />
<glyph unicode="&#x201d;" horiz-adv-x="839" d="M227 987q-16 23 4 37q81 66 103 152q-70 21 -70 90q0 55 33 86.5t88 31.5q47 0 74.5 -29.5t27.5 -80.5q0 -85 -52.5 -172.5t-143.5 -155.5q-22 -15 -37 6zM590 987q-16 23 4 37q80 65 102 152q-69 21 -69 90q0 55 33 86.5t88 31.5q47 0 74.5 -29.5t27.5 -80.5 q0 -84 -53 -172t-144 -156q-22 -15 -37 6z" />
<glyph unicode="&#x201e;" horiz-adv-x="839" d="M39 -195q-16 23 4 37q80 65 102 152q-69 21 -69 90q0 55 33 87t88 32q47 0 74.5 -30t27.5 -81q0 -84 -53 -172t-144 -156q-21 -15 -36 7zM401 -195q-16 22 5 37q80 65 102 152q-70 21 -70 90q0 55 33 87t88 32q47 0 75 -30t28 -81q0 -84 -53 -172t-144 -156 q-21 -15 -37 7z" />
<glyph unicode="&#x2022;" horiz-adv-x="1024" d="M264 580q0 116 82 198t199 82q104 0 172.5 -69.5t68.5 -172.5q0 -117 -81 -198q-82 -82 -197 -82q-104 0 -174 69.5t-70 172.5z" />
<glyph unicode="&#x2026;" horiz-adv-x="1843" d="M160 80q0 51 36 87t87 36q46 0 75 -30t29 -75q0 -53 -35.5 -88t-87.5 -35q-47 0 -75.5 29t-28.5 76zM741 80q0 51 36 87t87 36q47 0 76 -30t29 -75q0 -53 -35.5 -88t-87.5 -35q-47 0 -76 29t-29 76zM1321 80q0 51 36 87t87 36q46 0 75 -30t29 -75q0 -53 -35.5 -88 t-87.5 -35q-45 0 -74.5 29t-29.5 76z" />
<glyph unicode="&#x202f;" horiz-adv-x="363" />
<glyph unicode="&#x2039;" horiz-adv-x="514" d="M72 481q-13 22 6 47l270 346q18 21 43 21h86q23 0 29 -12t-8 -31l-279 -354l162 -338q21 -41 -25 -41h-77q-29 0 -41 24z" />
<glyph unicode="&#x203a;" horiz-adv-x="514" d="M26.5 131q-5.5 12 8.5 31l278 354l-161 338q-21 41 24 41h78q28 0 41 -25l166 -340q13 -22 -6 -47l-271 -344q-17 -20 -43 -20h-86q-23 0 -28.5 12z" />
<glyph unicode="&#x205f;" horiz-adv-x="454" />
<glyph unicode="&#x20ac;" d="M70 467l12 72q3 32 37 32h69l23 146h-64q-38 0 -32 37l12 71q3 33 37 33h69q70 445 486 445q133 0 232.5 -53t146.5 -150q15 -35 -19 -53l-75 -41q-31 -16 -52 18q-71 123 -243 123q-251 0 -297 -289h395q44 0 29 -41l-29 -74q-9 -26 -39 -26h-381l-22 -146h335 q44 0 29 -41l-29 -73q-9 -27 -38 -27h-322q-6 -44 -6 -78q0 -221 229 -221q169 0 271 135q25 35 53 10l63 -51q29 -23 8 -53q-144 -197 -415 -197q-183 0 -284 92.5t-101 262.5q0 59 8 100h-64q-38 0 -32 37z" />
<glyph unicode="&#x2122;" horiz-adv-x="1574" d="M158 1284l8 47q6 29 33 29h465q34 0 28 -33l-8 -47q-6 -29 -33 -29h-174l-94 -587q-3 -29 -33 -29h-59q-33 0 -27 33l92 583h-170q-34 0 -28 33zM717 668l104 663q3 29 33 29h119q27 0 33 -27l116 -518h4l283 522q10 23 37 23h127q32 0 26 -33l-104 -663q-3 -29 -33 -29 h-59q-33 0 -27 33l86 542h-4l-301 -553q-13 -22 -37 -22h-41q-26 0 -32 27l-123 538h-4l-89 -536q-3 -29 -32 -29h-56q-32 0 -26 33z" />
<glyph unicode="&#x25fc;" horiz-adv-x="1013" d="M0 0v1014h1014v-1014h-1014z" />
</font>
</defs>
</svg>
